<svg xmlns="http://www.w3.org/2000/svg" width="47.611" height="76.512" viewBox="0 0 47.611 76.512"><path d="M198.892,2120.265a3.3,3.3,0,0,0,.889-.786q3.841-3.758,7.673-7.526a6.29,6.29,0,0,1,8.311-.944,13.286,13.286,0,0,1,4.458,4.483,6.279,6.279,0,0,1-.928,8.186q-8.945,9.111-17.9,18.211c-1.217,1.238-1.287,1.8-.649,3.378a10.79,10.79,0,0,1-.915,10.483,4.18,4.18,0,0,0-.736,2.415c.025,3.205-.106,6.416.04,9.615.168,3.672-2.008,6.567-6.13,7.213a13.445,13.445,0,0,1-6.149-.411,6.1,6.1,0,0,1-4.456-5.959q-.031-5.293,0-10.586a3.7,3.7,0,0,0-.642-2.187,10.706,10.706,0,0,1,.082-12.353,3.4,3.4,0,0,0,.559-1.979q-.018-12.283-.005-24.566c.005-3.861,1.807-6.061,5.6-6.853a12.057,12.057,0,0,1,6.689.411,5.835,5.835,0,0,1,4.06,5.322c.107,1.23.031,2.477.049,3.715,0,.232-.074.483.1.717m-13.461,42.646c0,1.832-.014,3.665,0,5.5a2.882,2.882,0,0,0,2.326,3.066,9.581,9.581,0,0,0,5.342.051,3.121,3.121,0,0,0,2.514-3.3c0-3.449.026-6.9-.011-10.347a6.15,6.15,0,0,1,1.107-3.644,7.619,7.619,0,0,0,.665-7.962,5.667,5.667,0,0,1-.5-3.067,6.089,6.089,0,0,1,1.966-3.7q9.087-8.976,18.144-17.981a2.977,2.977,0,0,0,.594-4.078,9.963,9.963,0,0,0-3.572-3.662c-1.8-1.108-2.964-.964-4.464.536q-5.459,5.458-10.914,10.921a1.744,1.744,0,0,1-2.069.635c-.87-.359-.951-1.066-.948-1.86q.016-3.759,0-7.518a2.924,2.924,0,0,0-1.985-3.014,9.7,9.7,0,0,0-5.653-.183,3.112,3.112,0,0,0-2.546,3.349c0,8.165-.017,16.33.017,24.494a7.48,7.48,0,0,1-1.309,4.4,7.512,7.512,0,0,0,.174,8.643,5.6,5.6,0,0,1,1.117,3.466c-.008,1.751,0,3.5,0,5.254" transform="translate(-179.839 -2098.66)" fill="#fff"/><path d="M252.558,2083.767a1.592,1.592,0,1,1,.043-3.184,1.53,1.53,0,0,1,1.563,1.6,1.619,1.619,0,0,1-1.606,1.588" transform="translate(-237.756 -2074.866)" fill="#fff"/><path d="M237,2051.4a1.506,1.506,0,0,1-1.546,1.589,1.582,1.582,0,1,1-.01-3.162A1.5,1.5,0,0,1,237,2051.4" transform="translate(-223.782 -2049.83)" fill="#fff"/><path d="M218.253,2079.61a1.519,1.519,0,0,1-1.566,1.591,1.7,1.7,0,0,1-1.589-1.621,1.584,1.584,0,0,1,1.608-1.569,1.5,1.5,0,0,1,1.547,1.6" transform="translate(-208.542 -2072.771)" fill="#fff"/><path d="M386.955,2088.053a1.592,1.592,0,1,1,1.681-1.413,1.624,1.624,0,0,1-1.681,1.413" transform="translate(-347.262 -2078.359)" fill="#fff"/><path d="M420.425,2078.015a1.59,1.59,0,1,1-1.615,1.581,1.655,1.655,0,0,1,1.615-1.581" transform="translate(-374.379 -2072.775)" fill="#fff"/><path d="M412.545,2113.96a1.592,1.592,0,1,1-1.587-1.6,1.617,1.617,0,0,1,1.587,1.6" transform="translate(-366.688 -2100.735)" fill="#fff"/><path d="M216.45,2308.452a4.668,4.668,0,0,1-4.793-4.708,4.783,4.783,0,0,1,4.786-4.841,4.774,4.774,0,0,1,.007,9.548m1.55-4.9a1.493,1.493,0,0,0-1.512-1.614,1.586,1.586,0,1,0-.063,3.17,1.5,1.5,0,0,0,1.575-1.556" transform="translate(-205.742 -2252.595)" fill="#fff"/><path d="M234.43,2196.892a1.523,1.523,0,0,1-1.532,1.625,1.746,1.746,0,0,1-1.646-1.586,1.616,1.616,0,0,1,1.591-1.6,1.5,1.5,0,0,1,1.587,1.561" transform="translate(-221.693 -2168.279)" fill="#fff"/><path d="M234.453,2258.665a1.53,1.53,0,0,1-1.635,1.519,1.622,1.622,0,0,1-1.544-1.648,1.59,1.59,0,1,1,3.178.128" transform="translate(-221.71 -2218.488)" fill="#fff"/><path d="M232.907,2404.012a1.586,1.586,0,1,1,1.536-1.6,1.487,1.487,0,0,1-1.536,1.6" transform="translate(-221.706 -2335.58)" fill="#fff"/><path d="M225.088,2371.6a1.576,1.576,0,1,1-3.152.009,1.569,1.569,0,0,1,1.589-1.58,1.488,1.488,0,0,1,1.563,1.571" transform="translate(-214.109 -2310.499)" fill="#fff"/><path d="M225.095,2227.8a1.485,1.485,0,0,1-1.578,1.552,1.655,1.655,0,0,1-1.577-1.618,1.568,1.568,0,0,1,1.624-1.54,1.488,1.488,0,0,1,1.531,1.605" transform="translate(-214.112 -2193.406)" fill="#fff"/></svg>