<svg id="Group_2153" data-name="Group 2153" xmlns="http://www.w3.org/2000/svg" width="66.521" height="69.01" viewBox="0 0 66.521 69.01">
  <path id="Path_4632" data-name="Path 4632" d="M66.521,3.507a1.592,1.592,0,0,0-1.283-1.773C59.3-.409,53.245-.328,47.148.7c-4.982.838-9.932,1.861-14.914,2.679a32.079,32.079,0,0,1-13.745-.4c-1.457-.4-2.873-.947-4.507-1.492V2.674c0,2.546-.039,5.093.02,7.637A1.922,1.922,0,0,1,12.912,12.3c-1.547.875-3.01,1.9-4.476,2.912-4.2,2.9-6.821,6.734-7.222,11.976C1,30.049.54,32.894.119,35.736a9.928,9.928,0,0,0,.949,6.038c.615,1.237,1.278,2.452,1.837,3.713C6.087,52.665,8.057,60.23,9.913,67.826c.229.936.565,1.217,1.514,1.182,6.321-.225,12.645-.425,18.971-.543,1.191-.022,1.518-.462,1.677-1.536a52.939,52.939,0,0,1,2.9-11.613,43.1,43.1,0,0,0,1.5-4.893,86.748,86.748,0,0,0,2.406-17.254c.046-.846.312-1.206,1.156-1.344,2.69-.441,5.357-1.025,8.051-1.429,5.986-.9,11.893-.831,17.551,1.71a4.751,4.751,0,0,0,.846.175v-1.5c0-9.092-.017-18.184.033-27.278M13.957,29.955a1.613,1.613,0,0,0,1.4,2.022c2.4.534,4.8,1.1,7.2,1.627.449.1.918.118,1.383.175-.31,1.64-1.954,3.335-3.558,3.261-2.519-.118-5.028-.534-7.532-.89a1.08,1.08,0,0,1-.615-.807,40.962,40.962,0,0,1-.177-6.09c.089-1.043.938-2.018,1.444-3.023l.473.122c0,1.2.092,2.413-.026,3.6M36.2,26.26c-.3,7.4-.419,14.824-2.216,22.069-.585,2.358-1.442,4.646-2.085,6.989-.846,3.08-1.632,6.175-2.384,9.279-.166.685-.414.96-1.136.977-4.978.131-9.958.273-14.933.482-.927.039-1.04-.443-1.241-1.112-1.73-5.776-3.425-11.563-5.277-17.3a36.188,36.188,0,0,0-2.587-5.759,9.984,9.984,0,0,1-1.235-6.8c.6-3.248.951-6.544,1.418-9.818a8.293,8.293,0,0,1,2.757-5.2c2.011-1.76,4.153-3.368,6.241-5.041l.436.275c0,2.092.017,4.184-.024,6.274-.007.264-.312.548-.524.781C12.923,22.9,12.4,23.4,11.9,23.931c-1.965,2.081-3.274,4.328-2.759,7.421a37.472,37.472,0,0,1,.166,5.988c0,.6.177.99.783,1.1,2.956.55,5.894,1.322,8.878,1.579A7.249,7.249,0,0,0,26.8,34.844c.8-2.317,1.147-4.786,1.784-7.163a15.614,15.614,0,0,1,1.455-4.066,6.137,6.137,0,0,1,2.646-2.26,2.466,2.466,0,0,1,3.464,2.184A17.715,17.715,0,0,1,36.2,26.26m2.735-4.138a4.974,4.974,0,0,0-3.782-3.676c-.526-.148-.881-.3-.94-.964a6.089,6.089,0,0,1,5.706-6.655,6.223,6.223,0,0,1,6.616,6.147A6.042,6.042,0,0,1,40.083,23a1.042,1.042,0,0,1-1.143-.881m24.621,5.445a5.063,5.063,0,0,1-.1.609c-8.141-2.386-16.129-.755-24.187.846v-3.1c.5,0,.883.013,1.272,0a8.655,8.655,0,0,0,8.012-5.109,8.383,8.383,0,0,0-1.01-9.334,8.73,8.73,0,0,0-9-3.39,8.876,8.876,0,0,0-7.242,9.489,1.264,1.264,0,0,1-.742,1.455A8.7,8.7,0,0,0,26.4,24.408,45.769,45.769,0,0,0,25.3,29.3c-.3,1.595-.273,1.677-1.915,1.455-1.832-.249-3.641-.659-5.462-.977-.827-.146-1.091-.578-1.075-1.429.094-5.667.135-11.336.185-17,.015-1.841,0-3.682,0-5.608,1.6.279,3.156.615,4.731.814,5.154.654,10.217-.072,15.276-1.014,5.639-1.051,11.223-2.458,17.008-2.574a29.079,29.079,0,0,1,8.629,1.008,1.024,1.024,0,0,1,.9,1.126q-.029,11.236-.026,22.474" transform="translate(0 0)" fill="#fff"/>
</svg>
