<svg xmlns="http://www.w3.org/2000/svg" xmlns:xlink="http://www.w3.org/1999/xlink" width="120.616" height="262.825" viewBox="0 0 120.616 262.825"><defs><clipPath id="a"><rect width="120.616" height="262.825" fill="none"/></clipPath></defs><g transform="translate(168.505 86)"><g transform="translate(-168.505 -86)" clip-path="url(#a)"><path d="M27.988,41.22a48.283,48.283,0,0,0,6.293,2.4,11.456,11.456,0,0,0,3.135.481,4.763,4.763,0,0,0,1.411-.208,3.523,3.523,0,0,0,.593-.289,4.844,4.844,0,0,0,.565-.435,12.354,12.354,0,0,0,2.03-2.418c.622-.9,1.179-1.862,1.735-2.834,1.1-1.949,2.115-3.97,3.189-6a30.97,30.97,0,0,1-2.023,6.572,17.1,17.1,0,0,1-3.846,5.937,6.5,6.5,0,0,1-.794.58,5.234,5.234,0,0,1-.944.428,5.768,5.768,0,0,1-1.943.235,10.875,10.875,0,0,1-3.519-.826,20.73,20.73,0,0,1-5.882-3.623" transform="translate(11.823 13.483)" fill="#8a4f4f"/><path d="M29.046,100.04a10.73,10.73,0,0,0,4.889-1.082,11.121,11.121,0,0,0,4.028-3.307,11.5,11.5,0,0,0,2.018-4.66,11.027,11.027,0,0,0-.128-4.859,20.127,20.127,0,0,1-1.411,4.375,13.073,13.073,0,0,1-2.394,3.533,11.526,11.526,0,0,1-3.331,2.373,15.7,15.7,0,0,1-3.923,1.2l-.718-.189a17.307,17.307,0,0,1-3.69-1.348,5.087,5.087,0,0,1-2.43-2.247,5.58,5.58,0,0,1,.021-3.374,21.522,21.522,0,0,1,1.556-3.7,31.67,31.67,0,0,0,1.815-4.01,7.347,7.347,0,0,0,.422-2.464,8.524,8.524,0,0,0-.617-2.375,39.362,39.362,0,0,0-4.236-7.62l-.232-.233c.033.026-.063-.054-.1-.1a1.861,1.861,0,0,1-.152-.184,2.976,2.976,0,0,1-.275-.445,4.482,4.482,0,0,1-.361-1.08,8.026,8.026,0,0,1-.07-2.464,1.822,1.822,0,0,1,.954-1.61,6.624,6.624,0,0,1,2.354-.573c.88-.092,1.8-.128,2.744-.245a7.583,7.583,0,0,0,2.865-.825,46.153,46.153,0,0,0,4.629-3.085,8.982,8.982,0,0,0,3.314-4.593,9.713,9.713,0,0,0,.206-2.834c-.044-.926-.128-1.843-.236-2.757-.452-3.646-1.169-7.236-1.953-10.808.6,3.606,1.1,7.235,1.384,10.863.071.908.117,1.815.124,2.715a9.029,9.029,0,0,1-.287,2.6,8.089,8.089,0,0,1-3.173,4.008,45.443,45.443,0,0,1-4.609,2.812,6.452,6.452,0,0,1-2.4.563c-.875.074-1.785.074-2.727.134a7.917,7.917,0,0,0-2.957.636,5.637,5.637,0,0,0-.734.474,4.351,4.351,0,0,0-.593.694,4.229,4.229,0,0,0-.56,1.619,9.673,9.673,0,0,0,.009,3,6.178,6.178,0,0,0,.467,1.526,4.705,4.705,0,0,0,.422.733,3.449,3.449,0,0,0,.489.563,37.444,37.444,0,0,1,3.75,7.226,7.117,7.117,0,0,1,.431,1.723,5.306,5.306,0,0,1-.367,1.686A32.414,32.414,0,0,1,21.482,85.7a23.57,23.57,0,0,0-1.8,4.084,7.918,7.918,0,0,0-.028,4.97,6.015,6.015,0,0,0,1.528,2.175,9.784,9.784,0,0,0,1.98,1.408,17.812,17.812,0,0,0,3.2,1.348c-.026,1.233.031,2.384.04,3.533a37.37,37.37,0,0,1-.148,4.306,15.69,15.69,0,0,1-2.67,7.674,18.123,18.123,0,0,1-2.752,3.09c-1.038.96-2.176,1.812-3.388,2.775-.3.243-.614.5-.935.8l-.788.754-1.69,1.508a34.932,34.932,0,0,0-3.212,3.417,37.388,37.388,0,0,0-4.895,7.923c-.706,1.383-1.2,2.841-1.788,4.267l-.715,2.189c-.236.73-.486,1.458-.659,2.2A86.387,86.387,0,0,0,.031,162.15L0,166.753c.046,1.529.218,3.044.321,4.566.077,1.528.33,3.026.555,4.526s.405,3.014.754,4.488l.929,4.444,1.134,4.387c.356,1.469.815,2.9,1.25,4.347s.848,2.895,1.366,4.309c1.89,5.721,4.145,11.3,6.535,16.811,1.422,3.232,2.9,6.425,4.468,9.587.017.088.03.176.048.266a10.906,10.906,0,0,0,.358,1.267,6.072,6.072,0,0,0,.29.679,3.789,3.789,0,0,0,.212.371c.043.067.1.147.158.216.013.018.041.048.065.077l2.348,3.814,2.3-1.354q-1.837-3.574-3.56-7.223c-.026-.183-.058-.366-.078-.553a44.021,44.021,0,0,1-.273-4.491,88.092,88.092,0,0,1,.371-9.131c.508-6.122,1.222-12.256,1.916-18.382s1.411-12.26,2.156-18.388L25.859,153q-1.63,9.117-3.1,18.261-1.485,9.143-2.889,18.3c-.9,6.112-1.771,12.223-2.468,18.387a81.383,81.383,0,0,0-.587,8.432,207.926,207.926,0,0,1-7.495-19.556c-.488-1.4-.88-2.821-1.311-4.235s-.866-2.825-1.206-4.26l-1.09-4.287-.885-4.323c-.334-1.437-.485-2.895-.71-4.343A43.507,43.507,0,0,1,3.6,171.02c-.092-1.455-.255-2.912-.29-4.364l.046-4.35a83.393,83.393,0,0,1,2.548-17.323c.159-.711.394-1.4.614-2.087l.666-2.07c.543-1.336,1-2.713,1.654-3.994a35.146,35.146,0,0,1,4.447-7.3,31.871,31.871,0,0,1,2.875-3.138l1.633-1.492.819-.8c.228-.213.486-.437.762-.663a30.038,30.038,0,0,0,6.639-6.569,17.356,17.356,0,0,0,2.141-4.375,21.286,21.286,0,0,0,.92-4.7,36.76,36.76,0,0,0,.081-4.639c-.033-1.06-.1-2.118-.111-3.117" transform="translate(0 16.246)" fill="#8a4f4f"/><path d="M96.976,11.425A87.459,87.459,0,0,0,90.433,17.8a55.276,55.276,0,0,0-5.42,7.411,169.47,169.47,0,0,0-8.782,16,138.4,138.4,0,0,0-6.906,16.944c-.5,1.449-.9,2.933-1.324,4.412L66.851,66.97c-.751,2.94-1.458,5.89-2.144,8.848s-1.337,5.923-1.947,8.9l-.447,2.24L62.1,88.118l-.179,1.121q-.365,2.2-.836,4.381-.787,3.619-1.866,7.175a16.146,16.146,0,0,1-4.014,3.754,13.649,13.649,0,0,1-6.452,2.225,12.46,12.46,0,0,1-6.775-1.4,17.74,17.74,0,0,1-5.633-4.782,14.085,14.085,0,0,0,4.771,6.159,12.806,12.806,0,0,0,3.629,1.873,14.054,14.054,0,0,0,4.094.644,14.386,14.386,0,0,0,7.877-2.4c.2-.128.388-.266.579-.4q-.785,2.065-1.683,4.078a56.474,56.474,0,0,1-4.154,7.788c-1.57,2.5-3.378,4.814-5.209,7.307a27.1,27.1,0,0,0-4.418,8.5,30.481,30.481,0,0,0-1.161,9.516,33.748,33.748,0,0,0,.624,4.732c.31,1.525.659,3,.986,4.466.664,2.925,1.2,5.836,1.6,8.791.383,2.954.7,5.924.858,8.917a69.637,69.637,0,0,1,.125,8.893,42.56,42.56,0,0,1-1.29,8.664,57.96,57.96,0,0,1-3.084,8.3c-2.441,5.459-5.3,10.781-8.185,16.079-1.437,2.654-2.919,5.284-4.4,7.922-1.467,2.65-3.026,5.239-4.289,8.1a11.385,11.385,0,0,0-1.092,4.69,11.651,11.651,0,0,0,1.144,4.656,23.587,23.587,0,0,0,2.521,3.9,36.576,36.576,0,0,1,2.5,3.717,29.35,29.35,0,0,1,3.149,8.361,34.4,34.4,0,0,1,.767,8.987,31.768,31.768,0,0,0-3.141-17.771,37.521,37.521,0,0,0-2.4-3.915,22.517,22.517,0,0,1-2.246-3.8,10.326,10.326,0,0,1-.844-4.129,9.869,9.869,0,0,1,1.138-4.033c1.276-2.637,2.9-5.209,4.449-7.8,1.562-2.59,3.129-5.188,4.653-7.809,3.058-5.24,6.017-10.543,8.648-16.074a60.542,60.542,0,0,0,3.41-8.629,34.8,34.8,0,0,0,1-4.609c.232-1.535.407-3.08.511-4.627a72.651,72.651,0,0,0-.006-9.246c-.124-3.053-.407-6.107-.761-9.158s-.927-6.094-1.585-9.074a52.41,52.41,0,0,1-1.5-8.657,27.33,27.33,0,0,1,1.064-8.419,23.941,23.941,0,0,1,3.962-7.492c1.738-2.391,3.646-4.86,5.289-7.495a59.521,59.521,0,0,0,4.346-8.229,87.22,87.22,0,0,0,5.582-17.591q.461-2.262.807-4.545l.164-1.122.188-1.077.413-2.215c.566-2.954,1.179-5.907,1.818-8.853s1.319-5.886,2.006-8.823l1.048-4.4c.38-1.438.74-2.88,1.193-4.306a144.485,144.485,0,0,1,6.405-16.8,172.528,172.528,0,0,1,8.2-16.069,54.238,54.238,0,0,1,4.98-7.438,86.618,86.618,0,0,1,6.193-6.548c2.168-2.1,4.4-4.134,6.666-6.136s4.542-4,6.868-5.932c-4.856,3.614-9.6,7.382-14.131,11.425" transform="translate(9.51)" fill="#8a4f4f"/></g></g></svg>