<svg xmlns="http://www.w3.org/2000/svg" xmlns:xlink="http://www.w3.org/1999/xlink" width="122.034" height="181.893" viewBox="0 0 122.034 181.893">
  <defs>
    <clipPath id="clip-path">
      <rect id="Rectangle_1432" data-name="Rectangle 1432" width="122.034" height="181.893" fill="none"/>
    </clipPath>
  </defs>
  <g id="Group_2157" data-name="Group 2157" clip-path="url(#clip-path)">
    <path id="Path_4639" data-name="Path 4639" d="M28.783,54.648V71.174a43.369,43.369,0,0,1,5.293-.216h2.916c.324-4.645-4.32-16.31-8.209-16.31" transform="translate(14.396 27.333)" fill="#fff" fill-rule="evenodd"/>
    <path id="Path_4640" data-name="Path 4640" d="M12.772,71.246c4.32,2.268,11.665-3.564,11.881-3.348.54.648-1.3,5.509-1.3,6.589,0,1.3-8.317,1.08-10.369.972-.54,0-.324-4-.216-4.212" transform="translate(6.321 33.958)" fill="#fff" fill-rule="evenodd"/>
    <path id="Path_4641" data-name="Path 4641" d="M11.5,78.737c.756.432,1.62-.216,2.484-.216,1.836,0,4.1.216,5.725-.432.648-.216.864-1.4,1.4-1.62a15.8,15.8,0,0,1,2.16-1.08c.648.648-.648,6.157-.648,7.345s-8.857.324-10.909.216c-.648-.108-.432-4-.216-4.212" transform="translate(5.645 37.7)" fill="#fff" fill-rule="evenodd"/>
    <path id="Path_4642" data-name="Path 4642" d="M28.819,68.724l-.756,6.7,8.317,1.4.648-8.425Z" transform="translate(14.036 34.212)" fill="#fff" fill-rule="evenodd"/>
    <path id="Path_4643" data-name="Path 4643" d="M28.135,75.528,27.055,83.3l7.885,1.188,1.08-7.237Z" transform="translate(13.532 37.777)" fill="#fff" fill-rule="evenodd"/>
    <path id="Path_4644" data-name="Path 4644" d="M24.031,97.2,22.3,104.113l7.561,2.592,1.944-7.345Z" transform="translate(11.155 48.616)" fill="#fff" fill-rule="evenodd"/>
    <path id="Path_4645" data-name="Path 4645" d="M27.163,82.944l-1.188,7.237,7.345,1.944,1.188-7.453Z" transform="translate(12.992 41.486)" fill="#fff" fill-rule="evenodd"/>
    <path id="Path_4646" data-name="Path 4646" d="M22.231,104.256l-1.512,6.913,7.777,2.052,1.4-6.7Z" transform="translate(10.363 52.146)" fill="#fff" fill-rule="evenodd"/>
    <path id="Path_4647" data-name="Path 4647" d="M25.543,90.432l-1.512,7.561,7.777,2.052,1.728-7.237Z" transform="translate(12.019 45.231)" fill="#fff" fill-rule="evenodd"/>
    <path id="Path_4648" data-name="Path 4648" d="M20.755,110.592l-1.4,6.8,8.533.216.864-5.185Z" transform="translate(9.679 55.315)" fill="#fff" fill-rule="evenodd"/>
    <path id="Path_4649" data-name="Path 4649" d="M10.531,86.472l-.54,2.916,5.077.648H20.9l2.052-7.453-1.62-.216-3.024,3.456Z" transform="translate(4.997 41.198)" fill="#fff" fill-rule="evenodd"/>
    <path id="Path_4650" data-name="Path 4650" d="M6.571,99.576l-.54,2.808,5.077.648,5.725.108,1.08-3.456,1.944-4-2.484-.216L14.24,98.82Z" transform="translate(3.016 47.752)" fill="#fff" fill-rule="evenodd"/>
    <path id="Path_4651" data-name="Path 4651" d="M8.551,93.168l-.432,3.024,5.185.648h6.049L21.3,89.064l-1.4-.216-3.24,3.564Z" transform="translate(4.061 44.439)" fill="#fff" fill-rule="evenodd"/>
    <path id="Path_4652" data-name="Path 4652" d="M4.627,106.164l-.54,3.024,5.293.648,5.293.216,1.4-3.672,1.188-4.212-1.3-.216-3.24,3.564Z" transform="translate(2.044 50.993)" fill="#fff" fill-rule="evenodd"/>
    <path id="Path_4653" data-name="Path 4653" d="M.559,113.22l-.432,3.024,5.185.648L11.36,117l4.212-7.669-3.672-.324-3.24,3.564Z" transform="translate(0.063 54.522)" fill="#fff" fill-rule="evenodd"/>
    <path id="Path_4654" data-name="Path 4654" d="M13.331,64.046c3.888,1.62,9.721-4,9.937-3.78.54.432-.648,4.753-.54,5.725.108,1.08-7.129,1.62-8.965,1.62-.432.108-.648-3.348-.432-3.564" transform="translate(6.626 30.14)" fill="#fff" fill-rule="evenodd"/>
    <path id="Path_4655" data-name="Path 4655" d="M51.679,0A36.678,36.678,0,0,1,75.226,58.867c-3.888-3.78-7.129-7.885-7.669-14.042-.108-1.3.648-2.376.648-3.564v.108a35.62,35.62,0,0,0,1.3-12.745A36.57,36.57,0,0,0,51.679,0" transform="translate(25.848)" fill="#0062fe" fill-rule="evenodd"/>
    <path id="Path_4656" data-name="Path 4656" d="M78.285,61.96l3.672-1.728,4.861-1.62L89.3,55.155C82.929,48.566,75.26,44.03,74.4,34.2c0-1.188.648-2.268.756-3.456l-5.4,13.718c1.62,1.62,3.456,3.24,5.185,4.969a2.446,2.446,0,0,1,1.3,2.268c-.108,1.4-1.62,2.376-3.348,2.16l-4.32,1.512-3.132,1.512v.108a4.475,4.475,0,0,0-.648,2.484Z" transform="translate(32.402 15.377)" fill="#0062fe" fill-rule="evenodd"/>
    <path id="Path_4657" data-name="Path 4657" d="M80.517,46.011a3.039,3.039,0,0,1,2.916,2.916c-.108,1.4-1.62,2.376-3.348,2.16a2.878,2.878,0,0,1-2.916-2.808c.108-1.4,1.62-2.376,3.348-2.268" transform="translate(38.595 23.009)" fill="#0062fe" fill-rule="evenodd"/>
    <path id="Path_4658" data-name="Path 4658" d="M88.8,51.844c-1.4,2.052-.108,6.265.108,8.533.108,1.836-6.265,2.052-4.861,3.24,7.993,6.913.864,3.348,1.4,9.937C85.884,79.6,90.744,88.244,80.915,89c-4.537.432-9.829,1.188-14.042.54a70.75,70.75,0,0,0-9.613-1.08c-1.08,0-12.313.864-12.421.216a44.585,44.585,0,0,0,4.428-4.536c1.4.108,2.916.324,4.212.54,4.212.648,9.505-.108,14.042-.432,9.829-.756,4.969-9.505,4.429-15.554-.432-6.481,6.589-3.024-1.188-9.721a12.544,12.544,0,0,1,2.916-1.512c1.728-.54,14.8-9.829,15.122-5.617" transform="translate(22.427 25.384)" fill="#0062fe" fill-rule="evenodd"/>
    <path id="Path_4659" data-name="Path 4659" d="M50.225,118.553c.216-.972-.972-10.909-1.08-12.1-1.08-8.641-1.3-23.655,10.369-28.947V73.836a3.33,3.33,0,0,1-1.08-.108c-2.916-.432-6.7-.972-9.613-1.08-.324,0-1.62.108-3.132.216-11.233,5.4-11.017,20.2-9.937,28.731,0,.54-1.08,41.369-.756,43.961Z" transform="translate(17.473 36.336)" fill="#0062fe" fill-rule="evenodd"/>
    <path id="Path_4660" data-name="Path 4660" d="M79.3,36.914c4.1-.432,7.237,0,8.1,2.16a29.773,29.773,0,0,1,1.62,7.345h-.108C85.561,43.179,82,40.263,79.3,36.914M89.989,58.733v.54c-.216,6.481-8.965,11.773-13.934,14.582.864-4,5.725-1.944-1.4-8.1-1.4-1.188,4.969-1.4,4.861-3.24-.216-2.268-1.62-6.373-.108-8.533v-.108l3.132-1.512,4.32-1.512a3.575,3.575,0,0,0,2.484-.648c.324,3.024.432,5.941.648,8.209ZM58.017,91.784c-7.453,5.185-18.686,12.1-21.17,7.129a16.843,16.843,0,0,1,7.885-8.1c1.512-.108,2.808-.216,3.132-.216,2.916.108,6.7.648,9.613,1.08a4.678,4.678,0,0,0,.54.108" transform="translate(18.43 18.388)" fill="#0062fe" fill-rule="evenodd"/>
    <path id="Path_4661" data-name="Path 4661" d="M70.013,34.274c1.188-.108,2.376,1.3,2.484,3.24.216,1.836-.756,3.456-2.052,3.564-1.188.108-2.376-1.3-2.484-3.24-.216-1.836.756-3.456,2.052-3.564" transform="translate(33.977 17.14)" fill="#0062fe" fill-rule="evenodd"/>
    <path id="Path_4662" data-name="Path 4662" d="M24,48.335c1.512.324,2.7,1.62,2.484,2.916A2.873,2.873,0,0,1,23.14,53.2a2.814,2.814,0,0,1-2.484-3.024A2.7,2.7,0,0,1,24,48.335" transform="translate(10.318 24.141)" fill="#0062fe" fill-rule="evenodd"/>
    <path id="Path_4663" data-name="Path 4663" d="M23.457,62.469C39.442,74.242,15.788,151.9,8.767,156.44H20.648c5.4-23.871,14.366-47.417,14.366-71.828,0-11.881-.972-35,12.961-35,15.014,0,3.456-18.038-5.077-9.289-4.645,4.753-17.39,17.606-19.442,22.143" transform="translate(4.385 18.972)" fill="#0062fe" fill-rule="evenodd"/>
    <path id="Path_4664" data-name="Path 4664" d="M24.435,38.994a7.509,7.509,0,0,1,10.477,1.62,7.4,7.4,0,0,1-1.944,10.369A7.288,7.288,0,0,1,22.6,49.363c-2.376-3.24-1.4-7.885,1.836-10.369" transform="translate(10.644 18.793)" fill="#0062fe" fill-rule="evenodd"/>
    <path id="Path_4665" data-name="Path 4665" d="M11.644,12.478c3.348-2.268,6.8-3.132,7.669-1.836.972,1.3-.972,4.212-4.32,6.589-3.24,2.376-6.7,3.132-7.669,1.836-.864-1.3,1.08-4.212,4.32-6.589" transform="translate(3.56 5.02)" fill="#0062fe" fill-rule="evenodd"/>
    <path id="Path_4666" data-name="Path 4666" d="M41.157,32.446c2.7-1.944,6.7-.972,8.857,2.16,2.268,3.132,1.836,7.237-.864,9.073-2.808,1.944-6.8.972-8.965-2.16-2.16-3.024-1.728-7.129.972-9.073" transform="translate(19.412 15.727)" fill="#0062fe" fill-rule="evenodd"/>
    <path id="Path_4667" data-name="Path 4667" d="M47.291,11.364c2.376-1.728,6.8.324,9.829,4.645s3.456,9.181,1.08,10.8c-2.376,1.728-6.8-.432-9.829-4.645-3.024-4.32-3.456-9.181-1.08-10.8" transform="translate(22.891 5.378)" fill="#0062fe" fill-rule="evenodd"/>
    <path id="Path_4668" data-name="Path 4668" d="M8.261,38.1c4.753-3.456,10.8-3.132,13.394.54s.864,9.4-3.888,12.853c-4.861,3.348-10.8,3.132-13.5-.54-2.592-3.78-.756-9.505,4-12.853" transform="translate(1.543 17.85)" fill="#0062fe" fill-rule="evenodd"/>
    <path id="Path_4669" data-name="Path 4669" d="M8.506,23.689a6.129,6.129,0,0,1,8.533,1.62,6.128,6.128,0,0,1-1.188,8.641A6.314,6.314,0,0,1,8.506,23.689" transform="translate(3.025 11.307)" fill="#0062fe" fill-rule="evenodd"/>
    <path id="Path_4670" data-name="Path 4670" d="M15.374,22.941a5.629,5.629,0,0,1,7.993.972,5.846,5.846,0,0,1-1.728,7.993c-2.7,1.836-6.373,1.4-8.1-.972a5.78,5.78,0,0,1,1.836-7.993" transform="translate(6.311 10.866)" fill="#0062fe" fill-rule="evenodd"/>
    <path id="Path_4671" data-name="Path 4671" d="M16.375,15.975a5.424,5.424,0,1,1-1.3,7.561,5.435,5.435,0,0,1,1.3-7.561" transform="translate(7.039 7.463)" fill="#0062fe" fill-rule="evenodd"/>
    <path id="Path_4672" data-name="Path 4672" d="M26.534,16.826c3.24-2.268,7.561-1.836,9.613,1.08s1.08,7.237-2.16,9.505-7.561,1.728-9.613-1.188a6.929,6.929,0,0,1,2.16-9.4" transform="translate(11.677 7.693)" fill="#0062fe" fill-rule="evenodd"/>
    <path id="Path_4673" data-name="Path 4673" d="M18.99,6.91c3.024-2.16,6.913-1.944,8.425.324,1.62,2.376.54,6.049-2.376,8.209-3.024,2.16-6.913,1.944-8.533-.324-1.62-2.376-.54-6.049,2.484-8.209" transform="translate(7.88 2.703)" fill="#0062fe" fill-rule="evenodd"/>
    <path id="Path_4674" data-name="Path 4674" d="M36.36,22.955a5.675,5.675,0,0,1,7.993,1.512,5.722,5.722,0,0,1-1.188,8.1,5.891,5.891,0,0,1-6.8-9.613" transform="translate(16.972 10.961)" fill="#0062fe" fill-rule="evenodd"/>
    <path id="Path_4675" data-name="Path 4675" d="M35.324,9.626c2.376-1.728,6.157-.54,8.317,2.484,2.16,3.132,2.052,7.021-.324,8.749S37.16,21.4,35,18.267c-2.268-3.132-2.052-7.021.324-8.641" transform="translate(16.713 4.415)" fill="#0062fe" fill-rule="evenodd"/>
    <path id="Path_4676" data-name="Path 4676" d="M26.937,46.343c-4.429.756-1.4,10.153,0,12.1,6.157,8.857-8.1,13.069-14.582,8.209C9.763,64.705,6.2,58.981,4.362,56.388c-2.484-3.564,1.188-5.509,3.78-1.944C11.491,59.2,18.3,66.217,23.7,58.873c1.62-2.268-1.188-4.969-3.132-6.049-2.7-1.4.54-12.961-6.373-10.477-3.24,1.188-7.561,1.944-3.24-1.08,3.78-2.7,7.993-4.753,11.557-7.237,2.916-2.052,6.157,5.077,7.237-1.4.324-1.728,3.78-5.725,6.265-6.049,3.024-.54,14.258,7.345,15.446.216.108-.216,3.348,2.808,5.185,2.808,4.212-.108-7.021,4.429-7.237,4.537-6.157,4.429-9.073-7.777-10.8,1.728-.54,3.348-9.289,8.533-11.665,10.477" transform="translate(1.769 13.28)" fill="#0062fe" fill-rule="evenodd"/>
    <path id="Path_4677" data-name="Path 4677" d="M27.48,40.827c1.728-.216,4.212,2.268,6.157,1.62,4.32-1.4,4.645-4.969,7.345-6.8,3.24-2.376,5.4-4.212,9.289-4.1a3.822,3.822,0,0,1,3.24,5.725c-1.4,2.7,1.728,3.132,1.3,5.833-.324,1.62-2.592,1.512-4.32,1.3-8.1-1.4-9.181,8.641-16.418,9.721-4.537.756-7.129,2.268-9.4-3.564-1.08-2.592,2.7-9.289,2.808-9.721" transform="translate(12.243 15.772)" fill="#0062fe" fill-rule="evenodd"/>
    <path id="Path_4678" data-name="Path 4678" d="M45.561,36.039c3.024,1.08,7.777-.432,5.509-2.376-3.132-2.808-8.1-.54-10.153-3.456-1.836-2.7-.756-1.62-2.592-.324-.54.432-3.132,2.376-3.348,2.268-4-5.725,4-9.937,8.965-9.073,3.78.648,6.589,2.808,10.045,5.293,3.888,3.024,6.265,11.773,1.836,14.906-2.808,2.052-4.537,3.672-7.021.216-1.836-2.592-1.944-5.509-3.24-7.453" transform="translate(16.952 11.486)" fill="#0062fe" fill-rule="evenodd"/>
    <path id="Path_4679" data-name="Path 4679" d="M5.591,65.8C-2.618,61.367.3,55.751,1.487,48.838c.972-5.725-2.592-9.181.864-15.662,2.268-4.212,12.205-9.4,11.665-10.153-3.348-4.645-3.564-4.537,3.564-9.505,1.188-.864,15.122-2.484,12.1-6.8-1.188-1.62,9.937-4,12.1-.972,3.888,5.509,10.585,1.4,12.205,3.78.756.972,7.021,4.969,5.941,6.7-.648,1.08-7.129,10.261-8.209,3.888-.54-3.348-5.185-1.62-4.537,2.7,1.188,8.209-10.261,12.421-8.749,3.564,0-.108-1.188-5.293-1.836-6.265-1.62-2.16,1.512-5.725.54-7.129-.324-.432-10.477,4.753-13.5,3.132-3.672-2.052-6.049,5.941-5.833,6.913.864,6.049-7.561,5.4-6.373,9.505,2.16,6.8,11.881,5.4,7.453,13.5-1.3,2.268,4.32,1.728-.756,5.293-7.237,5.077-4.429.756-4.969-3.132-.216-.648-.864-8.425-3.456-7.561-1.188.324-1.4,5.941-2.052,7.129C2.459,57.371,10.019,57.479,5.591,65.8" transform="translate(0 2.144)" fill="#0062fe" fill-rule="evenodd"/>
    <path id="Path_4680" data-name="Path 4680" d="M12.075,27.117c4,2.7,4.32-2.7,4-5.185-.432-2.052.972-3.348,2.916-4.645,1.3-.972,3.024-.108,1.62-1.944-.432-.756,3.888.54,3.888.432a6.919,6.919,0,0,1,3.672,1.4c1.62,2.484,4.32-1.512,5.185,3.888.432,2.268-2.484,2.7-.648,5.4,1.62,2.268-1.836.108-2.484-.756-1.512-2.268-.54-5.293-4.429-2.484-3.672,2.592-2.052,1.62-1.512,4.537.324,1.728-.54,2.7-2.16,3.888-1.3.972-2.592,1.3-3.888,2.268-1.836,1.3-3.348,3.24-5.293.648a14.378,14.378,0,0,1-2.052-3.78c-.54-1.728,1.4-3.348,1.188-3.672" transform="translate(5.398 7.555)" fill="#0062fe" fill-rule="evenodd"/>
    <path id="Path_4681" data-name="Path 4681" d="M36.631,22.328a17.246,17.246,0,0,0,6.157,5.509c3.564,2.052,10.045-2.16,13.286-.432,6.373,3.456-5.941,6.913,1.3,10.693,4.537,2.592,10.477-13.718,2.052-18.146-2.916-1.728-2.268-5.185-3.456-6.8A20.108,20.108,0,0,0,43.112,4.938c-6.373-1.08-6.481,5.077-.756,4.969,1.4-.108,7.993,2.268,6.481,4.969-.648,1.08-2.484,3.78-1.728,4.861,1.728,2.376-1.728,5.725-2.808-1.188-.972-5.833-7.453,3.456-7.669,3.78" transform="translate(18.322 2.406)" fill="#0062fe" fill-rule="evenodd"/>
    <path id="Path_4682" data-name="Path 4682" d="M36.874,6.994c-1.4.324-2.484.432-3.456-.864-.54-.864-2.7-.432-3.348-.324-.54.108-1.3-.864-.972-1.4A3.918,3.918,0,0,1,32.661,2.35a16.744,16.744,0,0,0,3.78.756s1.08-.756,1.188-.864c.432-.324,2.592,2.16,2.484,2.592-.108.756-.648,1.08-1.3,1.62-.864.648-1.728,0-1.944.54" transform="translate(14.514 1.107)" fill="#0062fe" fill-rule="evenodd"/>
    <path id="Path_4683" data-name="Path 4683" d="M20.622,56.816c-.972-.54-2.376-1.3-3.348-1.836-3.888-1.836.648-2.268,1.836-3.456.216-.216.972-1.188,1.3-1.188.432,0,1.188-.324,1.4-.216.216,0,2.916,1.728,2.916,1.728a6.578,6.578,0,0,1,1.512,1.512c.324.972.108,3.564-1.512,3.564-.54,0-3.78.432-4.1-.108" transform="translate(7.867 25.057)" fill="#0062fe" fill-rule="evenodd"/>
  </g>
</svg>
