<svg xmlns="http://www.w3.org/2000/svg" width="73.726" height="87.868" viewBox="0 0 73.726 87.868"><path d="M854.672,61.8a15.042,15.042,0,0,1-3.559,1.123c-.673.162-1.283.289-1.565,1a1.6,1.6,0,0,0,.444,1.725c.131.153.253.312.37.473,1.515,2.116,1.247,3.771-.845,5.253,1.861,2.831,1.414,4.119-1.884,5.339.258,1.009.577,2.013.766,3.039.992,5.413-2.319,9.585-7.832,9.708a46.969,46.969,0,0,1-5.674-.542c.159,1.62.329,3.376.5,5.133.081.826.189,1.649.244,2.478a1.326,1.326,0,0,1-1.212,1.572A1.308,1.308,0,0,1,833,96.816c-.351-3.3-.687-6.607-.981-9.914-.1-1.174.763-1.7,1.923-1.4,1.873.494,3.753,1,5.661,1.3a5.867,5.867,0,0,0,3.879-.835,4.519,4.519,0,0,0,2.407-4.9,18.518,18.518,0,0,0-.776-3.156,2.747,2.747,0,0,1,2.015-3.9c.236-.069.456-.184.913-.374-.844-.594-1.508-1.116-2.226-1.55-.634-.386-1.154-.808-.978-1.622.17-.8.773-1.049,1.531-1.119a11.728,11.728,0,0,0,1.679-.336c.615-.15.692-.52.351-1.011-.21-.3-.43-.606-.659-.9a4.025,4.025,0,0,1-.608-4.351,4.135,4.135,0,0,1,3.538-2.491,8.862,8.862,0,0,0,2.388-.613,1.513,1.513,0,0,0,.878-2.256,22.753,22.753,0,0,0-1.906-3.542c-1.608-2.364-3.314-4.664-5.012-6.968a2.587,2.587,0,0,1-.532-1.641c-.038-3.545.222-7.149-.327-10.622-.863-5.458-4.139-9.661-8.3-13.153a27.5,27.5,0,0,0-15.4-6.119,32.239,32.239,0,0,0-18.044,3.051c-7.347,3.7-11.479,9.747-12.743,17.831-1.668,10.667.417,20.727,4.933,30.379.921,1.965,2.087,3.812,3.092,5.737A2.661,2.661,0,0,1,800,73.727c-.589,6.844-1.212,13.688-1.83,20.531-.029.343-.062.685-.119,1.024a1.348,1.348,0,0,1-1.4,1.222,1.308,1.308,0,0,1-1.219-1.484c.183-2.369.406-4.737.62-7.1.415-4.59.842-9.181,1.24-13.773a1.708,1.708,0,0,0-.243-.957A61.214,61.214,0,0,1,789,51.063a44.613,44.613,0,0,1,.854-18.995c2.359-8.432,7.858-14.146,15.97-17.177,10.109-3.776,20.149-3.433,29.7,1.792a26.3,26.3,0,0,1,12.9,15.744,20.168,20.168,0,0,1,.719,4.818c.129,2.4.036,4.811.105,7.214A2.872,2.872,0,0,0,849.754,46a61.114,61.114,0,0,1,6.236,9.441,10.539,10.539,0,0,1,.554,1.348,3.979,3.979,0,0,1-1.873,5.009" transform="translate(-783.073 -10.235)" fill="#8b8b8b"/><path d="M871.56,68.924a3.857,3.857,0,0,1-1.188-1.148c-1.653-2.416-3.757-3.976-6.832-3.9a1.617,1.617,0,0,1-.921-.479,7.713,7.713,0,0,0-8.034-1.806,4.153,4.153,0,0,1-1.989.172,8.891,8.891,0,0,0-8.4,2.855,1.106,1.106,0,0,1-.776.346,7.243,7.243,0,0,0-7.242,4.1,2.644,2.644,0,0,1-.938.916,6.167,6.167,0,0,0-3.287,5.976,1.823,1.823,0,0,1-.269,1.016,6.043,6.043,0,0,0,.036,7.087,2.454,2.454,0,0,1,.36,1.1c.184,2.275.888,4.248,2.932,5.541a1.894,1.894,0,0,1,.523.751,8.207,8.207,0,0,0,6.166,4.585,34,34,0,0,0,3.414.229c0,1.331,0,2.643,0,3.955a3.194,3.194,0,0,0,6.276.9c.183-.63.279-1.286.455-1.92.735-2.643,1.486-5.281,2.23-7.922.153-.542.47-.728,1.066-.723a21.608,21.608,0,0,0,3.337-.207c3.237-.486,6.054-1.7,7.762-4.735a1.409,1.409,0,0,1,.771-.451,16.615,16.615,0,0,0,5.8-3.075c4.518-3.862,2.992-10.679-1.259-13.158m-.3,10.93a12.307,12.307,0,0,1-5.668,2.9,2.213,2.213,0,0,0-1.625,1.34,5.83,5.83,0,0,1-4.458,3.292,26.685,26.685,0,0,1-5.105.455c-1.036,0-1.785.258-2.135,1.185-.816,2.161-1.6,4.335-2.288,6.539-.449,1.445-.678,2.956-1.069,4.42-.083.308-.443.541-.675.808a3.069,3.069,0,0,1-.41-1c-.021-.856.071-1.715.117-2.572h-.005c.043-.857.114-1.715.124-2.574.016-1.078-.659-1.575-1.724-1.451a19.517,19.517,0,0,1-3.828.251,5.563,5.563,0,0,1-4.781-3.669,2.116,2.116,0,0,0-.773-1.069,3.729,3.729,0,0,1-2.145-3.79,3.27,3.27,0,0,0-.716-2.2,3.335,3.335,0,0,1,.145-4.613,1.921,1.921,0,0,0,.5-1.794,3.406,3.406,0,0,1,2.156-4.1,2.736,2.736,0,0,0,1.5-1.517c1.169-2.517,2.955-3.409,5.623-2.867a1.426,1.426,0,0,0,1.636-.637c1.737-2.693,4.26-3.211,7.211-2.667a3.354,3.354,0,0,0,1.8-.119,5.269,5.269,0,0,1,6.581,1.488,1.975,1.975,0,0,0,2.015.761c2.116-.312,3.881.732,5.038,2.955a3.153,3.153,0,0,0,1.546,1.488,5.474,5.474,0,0,1,1.414,8.764" transform="translate(-817.997 -50.608)" fill="#8b8b8b"/><path d="M785.386,23.186a10.961,10.961,0,0,0-1.887.927,4.021,4.021,0,0,1-4.371.233c-.8-.378-1.653-.639-2.458-1.005a10.045,10.045,0,0,1-5.8-7.246A23.233,23.233,0,0,0,765,5.083a45.666,45.666,0,0,0-5.179-4.5c-.637-.485-1.4-.989-2.01-.092-.561.829.158,1.315.775,1.776,3.46,2.585,6.6,5.463,8.57,9.41a25.161,25.161,0,0,1,1.893,5.433,11.376,11.376,0,0,0,8.188,8.678,12.508,12.508,0,0,1,6.829,4.693c.325.449.729.875,1.39.681s.752-.741.843-1.3q.391-2.419.793-4.837a1.807,1.807,0,0,0-.492-1.584,1.027,1.027,0,0,0-1.212-.252" transform="translate(-757.606 0.001)" fill="#0062fe"/><path d="M931.539,154.287c-.2.685-.023,1.3.748,1.4a29.935,29.935,0,0,0,3.53.173.973.973,0,0,0,.291-1.878,14.719,14.719,0,0,0-3.957-.194.844.844,0,0,0-.612.5" transform="translate(-901.527 -127.272)" fill="#0062fe"/><path d="M932.965,132.207a1,1,0,0,0,.394,1.952,2.44,2.44,0,0,0,.322-.059c.853-.211,1.724-.35,2.58-.549.63-.147,1.109-.485.97-1.222s-.7-.9-1.343-.772c-.97.19-1.945.373-2.9.643l-.026.008" transform="translate(-902.193 -108.873)" fill="#0062fe"/><path d="M928.561,173.827a16.641,16.641,0,0,0,3.154.762.874.874,0,0,0,1.005-.679.929.929,0,0,0-.569-1.178,13.13,13.13,0,0,0-3.194-.819.905.905,0,0,0-1.072.738c-.11.487.082.863.676,1.176" transform="translate(-898.543 -142.303)" fill="#0062fe"/></svg>