<svg xmlns="http://www.w3.org/2000/svg" width="49.431" height="87.937" viewBox="0 0 49.431 87.937"><path d="M208.631,1358.835a3.293,3.293,0,0,0-4.136.024,1.393,1.393,0,0,1-1.6.329c.076-.2.138-.384.214-.561,1-2.321.561-3.571-1.674-4.8q-4.845-2.663-9.692-5.319H190.2a3.53,3.53,0,0,0-2.142,1.968c-1.491,4.022-3.008,8.036-4.473,12.07a2.851,2.851,0,0,0,1.345,3.609,1.02,1.02,0,0,1,.653,1.212,9.6,9.6,0,0,1-.425,1.557.849.849,0,0,1-1.047.6,2.908,2.908,0,0,0-3.22,2.448c-.222,1.123-.372,2.259-.553,3.388-.484,3.024-.976,6.047-1.446,9.072a3.057,3.057,0,0,0,2.2,3.669c.248.089.594.384.6.585a15.779,15.779,0,0,1-.2,2.514c-.033.2-.351.437-.587.523a3.071,3.071,0,0,0-2.378,3.487q.325,6.134.677,12.264a3,3,0,0,0,2.676,2.986,1.156,1.156,0,0,1,1.092.883,6.418,6.418,0,0,1,.308,1.415,1.544,1.544,0,0,1-.914,1.724,2.779,2.779,0,0,0-1.4,3.437q2.015,6.2,4.144,12.366a2.944,2.944,0,0,0,3.38,1.889c.923-.164,1.319.017,1.546.928a4.106,4.106,0,0,1-.031,1.586,1.41,1.41,0,0,0,.813,1.689,1.363,1.363,0,0,0,1.737-.857,7.288,7.288,0,0,0,.26-2.6,11.27,11.27,0,0,0-.857-2.416c.647-.322,1.334-.67,2.027-1.007s1.367-.654,2.068-.988c.188.5.315.906.494,1.291a3.978,3.978,0,0,0,2.994,2.328,1.441,1.441,0,0,0,1.8-1.045c.177-.782-.281-1.412-1.209-1.662-.11-.029-.224-.052-.331-.09-.728-.263-.878-.894-1.037-1.553-.155-.641.257-.825.677-1.1a3,3,0,0,0,1.357-3.116c-.065-.472-.167-.938-.3-1.7a17.675,17.675,0,0,1,1.87.751c2.163,1.183,4.286.386,4.921-1.877a3.206,3.206,0,0,0-1.338-3.531c-.222-.162-.446-.318-.68-.485a3.235,3.235,0,0,0,.358-3.232,3.7,3.7,0,0,0-3.738-2.066,3.213,3.213,0,0,0-2.924,2.708c-.145.577-.367,1.054-1.047,1.2-.059-.179-.107-.31-.143-.444-.62-2.316-1.329-2.874-3.721-2.949a.9.9,0,0,1-.542-.165c-.849-.745-.413-3.213.622-3.661a3.033,3.033,0,0,0,1.959-2.51c.06-.48.119-.961.212-1.722.653.5,1.212.852,1.687,1.3a3.166,3.166,0,0,0,4.415.3,3.243,3.243,0,0,0,.329-4.621c-.155-.193-.32-.377-.492-.582a3.274,3.274,0,0,0,1.262-2.818,3.614,3.614,0,0,0-2.949-3.168,3.294,3.294,0,0,0-3.679,1.736c-.3.508-.618.95-1.374.89,0-.453.017-.88,0-1.305a2.851,2.851,0,0,0-2.213-2.824c-1.043-.174-1.245-.8-1.212-1.6a10.323,10.323,0,0,1,.36-1.92.979.979,0,0,1,.945-.806,2.94,2.94,0,0,0,2.483-2.207c.136-.429.257-.863.473-1.591.587.7,1.057,1.209,1.464,1.765a3.11,3.11,0,0,0,4.2,1.116,3.24,3.24,0,0,0,1.3-4.511c-.115-.222-.244-.437-.368-.656l.25.109a11.209,11.209,0,0,0,1.439-2.407,3.528,3.528,0,0,0-6.05-3.123,7.648,7.648,0,0,1-1.293.885l-.22-.222c.079-.468.17-.937.236-1.407a2.7,2.7,0,0,0-1.262-2.889,1.585,1.585,0,0,1-.8-1.946,8.061,8.061,0,0,1,.764-1.794,1.111,1.111,0,0,1,1.178-.613,2.849,2.849,0,0,0,2.676-1.553c.253-.429.487-.87.852-1.526a18.931,18.931,0,0,1,.973,1.7,3.631,3.631,0,0,0,2.214,2.245,3.09,3.09,0,0,0,3.149-.878,3.2,3.2,0,0,0,.787-3.333,7.448,7.448,0,0,0-.246-.711,3.284,3.284,0,0,0,2.371-2.025,3.546,3.546,0,0,0-1.315-4.039m-14.6,56.021c.641-.122.973.036,1.1.687a11.4,11.4,0,0,0,.339,1.15c.4,1.319.787,1.61,2.14,1.6a4.183,4.183,0,0,0,4.036-3.13c.09-.288.2-.7.411-.785a1.234,1.234,0,0,1,.928.16c.095.052.059.523-.052.735-.911,1.734-.513,3.084,1.181,4.143.258.16.344.6.51.906a2.73,2.73,0,0,1-.966-.114,4.656,4.656,0,0,0-4.814-.195,1.776,1.776,0,0,0-.985,2.293c.448,2.185.449,2.19-1.577,3.173-2.571,1.248-5.148,2.483-7.717,3.735-.492.241-.813.287-1.024-.363-1.252-3.86-2.538-7.71-3.807-11.565a3.271,3.271,0,0,1-.069-.522c.83-.158,1.634-.315,2.44-.461,2.643-.482,5.291-.943,7.931-1.45m-8.406-4.919,4.718-.9c.067,1.221.129,2.4.2,3.7l-4.292.763-.625-3.564m7.137-13.706a9.964,9.964,0,0,0-.009,1.2c0,1.389.322,1.8,1.684,2.164a4.153,4.153,0,0,0,4.7-1.975c.281-.425.541-.852,1.152-.5.456.269.6.553.179,1.014-1.486,1.646-1.469,2.748.05,4.463.36.406.408.732-.177,1.109-.245-.226-.523-.453-.764-.713a4.5,4.5,0,0,0-4.783-1.221,1.64,1.64,0,0,0-1.178,1.612c0,.341-.064.684-.1,1.024-.153,1.589.134,1.319-1.481,1.636-3.115.608-6.24,1.174-9.355,1.779-.518.1-.808.065-.835-.567-.181-4.146-.384-8.29-.577-12.435a2.391,2.391,0,0,1,.067-.41c1.272.109,2.516.212,3.76.32,2.28.2,4.559.418,6.841.6.6.046.89.255.818.9m-8.268-4.33v-3.471h5.095c-.119,1.317-.229,2.548-.351,3.9-1.536-.14-3.163-.289-4.744-.432m15.915-12.834c.331-.315.62-.72,1.155-.322.468.349.473.749-.012,1.074-1.755,1.179-2.035,2.431-.938,4.287.257.432.343.787-.336,1.088-.219-.31-.418-.578-.606-.857a4.546,4.546,0,0,0-4.589-2.2,1.755,1.755,0,0,0-1.412,1.321c-.68,2.228-.694,2.228-2.987,2.178-2.746-.06-5.493-.15-8.241-.182-.723-.009-.961-.215-.839-.961q.963-5.842,1.854-11.7c.091-.6.341-.714.859-.553,3.246,1.016,6.491,2.037,9.744,3.034.477.146.56.4.458.83-.136.585-.239,1.178-.362,1.765a1.56,1.56,0,0,0,.7,1.7,4.206,4.206,0,0,0,5.549-.513m-12.781-8.581c.308-1.181.587-2.247.882-3.375,1.584.355,3.244.725,4.871,1.087-.368,1.233-.723,2.412-1.105,3.688-1.5-.455-3.1-.933-4.647-1.4m19.341-8.29c-2.018.854-2.5,2-1.742,3.976.093.246-.079.6-.129.9-.281-.164-.659-.262-.823-.5a23.176,23.176,0,0,0-1.2-2.033,4.233,4.233,0,0,0-1.591-1.116c-1.625-.68-2.4-.356-3.19,1.19-.832,1.62-.832,1.625-2.6,1.247-2.908-.625-5.811-1.269-8.723-1.879-.637-.133-.871-.312-.6-1.021q2.1-5.486,4.115-11.006c.263-.723.549-.775,1.183-.42q4.267,2.384,8.578,4.69c.535.286.723.572.427,1.136a13.669,13.669,0,0,0-.529,1.267c-.463,1.157-.386,1.744.641,2.443a18.607,18.607,0,0,0,2.648,1.262c.952-.42,1.825-.744,2.633-1.186.5-.277.842-.284,1.157.193.258.387.215.663-.262.864" transform="translate(-160.706 -1348.509)" fill="#fff"/><path d="M86.413,1721.042c-1.024.095-2.054.138-3.228.213.351.644.654,1.207.961,1.767.737,1.345.153,2.376-1.357,2.343-2.061-.045-4.12-.115-6.181-.193a1.382,1.382,0,1,1,.06-2.745c1.305,0,2.609,0,3.988,0-.353-.647-.7-1.212-.975-1.808a1.317,1.317,0,0,1,1.085-1.961c1.823-.181,3.652-.312,5.48-.425a1.408,1.408,0,1,1,.167,2.81" transform="translate(-75.094 -1654.571)" fill="#fff"/><path d="M141.725,1756.994c-1.5,1.453-3.022,2.877-4.554,4.292a1.4,1.4,0,0,1-2.12.057c-.568-.627-.482-1.381.272-2.1.925-.883,1.866-1.749,2.9-2.717-.7-.217-1.269-.382-1.829-.568a1.38,1.38,0,0,1-.711-2.4c1.142-1.355,2.305-2.691,3.476-4.02a1.345,1.345,0,0,1,2.035-.214,1.371,1.371,0,0,1,.038,1.992c-.7.828-1.414,1.639-2.218,2.569.8.251,1.455.441,2.1.661a1.367,1.367,0,0,1,.61,2.447" transform="translate(-124.422 -1680.004)" fill="#fff"/><path d="M97.694,1653.271a1.347,1.347,0,0,1-1.985.065c-.728-.6-1.433-1.222-2.261-1.934-.227.718-.424,1.352-.627,1.984a1.45,1.45,0,0,1-2.619.659c-1.374-1.415-2.715-2.862-4.062-4.3a4.127,4.127,0,0,1-.548-.761,1.356,1.356,0,0,1,2.13-1.658c.859.878,1.684,1.791,2.516,2.7a6.763,6.763,0,0,1,.451.656c.258-.833.427-1.431.628-2.016a1.372,1.372,0,0,1,2.355-.68c1.293,1.083,2.562,2.194,3.822,3.314a1.363,1.363,0,0,1,.2,1.979" transform="translate(-83.596 -1595.497)" fill="#fff"/><path d="M145.91,1371.2a1.393,1.393,0,0,1-1.846-.923c-.337-.88-.637-1.773-1.059-2.962-.5.591-.859,1.09-1.29,1.52a1.379,1.379,0,0,1-2.481-.654c-.525-1.96-1.019-3.926-1.507-5.9a1.387,1.387,0,1,1,2.679-.654c.313,1.147.6,2.3.976,3.754.475-.555.777-.968,1.14-1.317a1.369,1.369,0,0,1,2.436.518c.594,1.577,1.148,3.17,1.694,4.764a1.375,1.375,0,0,1-.744,1.849" transform="translate(-126.896 -1358.375)" fill="#fff"/><path d="M115.3,1484.473c-.892.369-1.8.7-2.8,1.1.5.532.954,1,1.391,1.477a1.405,1.405,0,0,1-.684,2.5c-1.782.518-3.573,1.007-5.362,1.5a2.9,2.9,0,0,1-.761.088,1.377,1.377,0,0,1-.381-2.72c1.229-.353,2.466-.682,3.828-1.057-.479-.506-.876-.906-1.25-1.327a1.363,1.363,0,0,1,.487-2.354q2.255-.935,4.544-1.784a1.387,1.387,0,1,1,.988,2.584" transform="translate(-100.365 -1458.826)" fill="#fff"/><path d="M99.3,1434.119a1.347,1.347,0,0,1-1.8.692c-.914-.38-1.8-.821-2.824-1.293,0,.794.017,1.443,0,2.092a1.386,1.386,0,0,1-2.2,1.247c-1.7-1.005-3.375-2.039-5.05-3.075a1.392,1.392,0,1,1,1.479-2.331c.923.561,1.832,1.145,2.944,1.844,0-.728-.022-1.266,0-1.8a1.378,1.378,0,0,1,2.08-1.3c1.593.7,3.172,1.431,4.749,2.166a1.366,1.366,0,0,1,.625,1.763" transform="translate(-84.625 -1415.982)" fill="#fff"/></svg>