<svg xmlns="http://www.w3.org/2000/svg" width="68.429" height="85.739" viewBox="0 0 68.429 85.739"><path d="M141.258,61.8a15.042,15.042,0,0,1-3.559,1.123c-.673.162-1.283.289-1.565,1a1.6,1.6,0,0,0,.444,1.725c.131.153.253.312.37.473,1.515,2.116,1.247,3.771-.845,5.253,1.861,2.831,1.414,4.119-1.884,5.339.258,1.009.577,2.013.766,3.039.992,5.413-2.319,9.585-7.832,9.708a46.962,46.962,0,0,1-5.673-.542c.158,1.62.329,3.376.5,5.133.081.826.189,1.649.245,2.478a1.326,1.326,0,0,1-1.212,1.572,1.308,1.308,0,0,1-1.431-1.283c-.351-3.3-.687-6.607-.981-9.914-.1-1.174.763-1.7,1.923-1.4,1.873.494,3.754,1,5.661,1.3a5.867,5.867,0,0,0,3.879-.835,4.518,4.518,0,0,0,2.407-4.9,18.526,18.526,0,0,0-.777-3.156,2.747,2.747,0,0,1,2.014-3.9c.236-.069.456-.184.913-.374-.844-.594-1.508-1.116-2.226-1.55-.634-.386-1.154-.808-.978-1.622.17-.8.773-1.049,1.531-1.119a11.727,11.727,0,0,0,1.679-.336c.615-.15.692-.52.351-1.011-.21-.3-.43-.606-.659-.9a4.026,4.026,0,0,1-.608-4.351,4.135,4.135,0,0,1,3.538-2.491,8.863,8.863,0,0,0,2.388-.613,1.512,1.512,0,0,0,.878-2.256,22.757,22.757,0,0,0-1.906-3.542C137,51.493,135.3,49.193,133.6,46.889a2.588,2.588,0,0,1-.532-1.641c-.038-3.545.222-7.149-.327-10.622-.863-5.458-4.139-9.661-8.3-13.153a27.5,27.5,0,0,0-15.4-6.119,32.239,32.239,0,0,0-18.044,3.051c-7.347,3.7-11.479,9.747-12.743,17.831-1.668,10.667.417,20.727,4.933,30.379.921,1.965,2.087,3.812,3.092,5.737a2.66,2.66,0,0,1,.313,1.374c-.589,6.844-1.212,13.688-1.83,20.531-.029.343-.062.685-.119,1.024a1.348,1.348,0,0,1-1.4,1.222,1.308,1.308,0,0,1-1.219-1.484c.183-2.369.406-4.737.62-7.1.415-4.59.842-9.181,1.24-13.773a1.707,1.707,0,0,0-.243-.957,61.213,61.213,0,0,1-8.048-22.125,44.612,44.612,0,0,1,.854-18.995C78.8,23.636,84.3,17.922,92.407,14.891c10.109-3.776,20.149-3.433,29.7,1.792a26.3,26.3,0,0,1,12.9,15.744,20.178,20.178,0,0,1,.72,4.818c.129,2.4.036,4.811.105,7.214A2.871,2.871,0,0,0,136.34,46a61.129,61.129,0,0,1,6.236,9.441,10.564,10.564,0,0,1,.554,1.348,3.979,3.979,0,0,1-1.873,5.009" transform="translate(-74.956 -12.364)" fill="#fff"/><path d="M158.148,68.921a3.852,3.852,0,0,1-1.188-1.148c-1.653-2.416-3.757-3.976-6.832-3.9a1.616,1.616,0,0,1-.921-.479,7.713,7.713,0,0,0-8.034-1.806,4.151,4.151,0,0,1-1.989.172,8.891,8.891,0,0,0-8.4,2.855,1.107,1.107,0,0,1-.777.346,7.243,7.243,0,0,0-7.242,4.1,2.642,2.642,0,0,1-.938.916,6.167,6.167,0,0,0-3.287,5.976,1.823,1.823,0,0,1-.269,1.016,6.043,6.043,0,0,0,.036,7.087,2.455,2.455,0,0,1,.36,1.1c.184,2.274.888,4.248,2.932,5.541a1.892,1.892,0,0,1,.523.751,8.207,8.207,0,0,0,6.166,4.585,34.054,34.054,0,0,0,3.414.229c0,1.331,0,2.643,0,3.955a3.194,3.194,0,0,0,6.276.9c.183-.63.279-1.286.455-1.92.735-2.643,1.486-5.281,2.23-7.922.153-.542.47-.728,1.066-.723a21.6,21.6,0,0,0,3.337-.207c3.237-.486,6.054-1.7,7.762-4.735a1.409,1.409,0,0,1,.771-.451,16.618,16.618,0,0,0,5.8-3.075c4.518-3.862,2.992-10.679-1.259-13.158m-.3,10.93a12.306,12.306,0,0,1-5.668,2.9,2.213,2.213,0,0,0-1.625,1.34,5.83,5.83,0,0,1-4.458,3.292,26.7,26.7,0,0,1-5.105.454c-1.037,0-1.786.258-2.135,1.185-.816,2.161-1.6,4.335-2.288,6.54-.449,1.444-.678,2.956-1.069,4.42-.083.308-.443.541-.675.808a3.067,3.067,0,0,1-.41-1c-.021-.856.071-1.715.117-2.572h-.005c.043-.857.114-1.715.124-2.574.015-1.078-.659-1.575-1.724-1.451a19.545,19.545,0,0,1-3.828.251,5.563,5.563,0,0,1-4.781-3.669,2.116,2.116,0,0,0-.773-1.069,3.729,3.729,0,0,1-2.145-3.79,3.27,3.27,0,0,0-.716-2.2,3.335,3.335,0,0,1,.145-4.613,1.921,1.921,0,0,0,.5-1.794,3.406,3.406,0,0,1,2.156-4.1,2.736,2.736,0,0,0,1.5-1.517c1.169-2.517,2.955-3.409,5.623-2.867a1.426,1.426,0,0,0,1.636-.637c1.737-2.693,4.26-3.211,7.211-2.667a3.356,3.356,0,0,0,1.8-.119,5.269,5.269,0,0,1,6.581,1.487,1.975,1.975,0,0,0,2.015.761c2.116-.311,3.881.732,5.038,2.955a3.153,3.153,0,0,0,1.546,1.487,5.475,5.475,0,0,1,1.414,8.764" transform="translate(-109.882 -52.735)" fill="#fff"/><path d="M205.5,128.53a47.183,47.183,0,0,0-3.285-6.564,1.227,1.227,0,0,0-2.147.033,48.786,48.786,0,0,0-3.221,6.407,4.5,4.5,0,1,0,8.654.124m-3.24,2.657a1.9,1.9,0,0,1-2.235-.022,1.75,1.75,0,0,1-.635-2.12c.5-1.229,1.086-2.419,1.637-3.626l.27.016c.551,1.21,1.145,2.4,1.637,3.638a1.74,1.74,0,0,1-.675,2.114" transform="translate(-175.639 -102.585)" fill="#fff"/></svg>