<svg xmlns="http://www.w3.org/2000/svg" width="55.336" height="87.937" viewBox="0 0 55.336 87.937"><path d="M844.769,1562.476q-.162,0-.325-.009a5.773,5.773,0,0,1-3.987-1.893,5.667,5.667,0,0,1-1.476-4.144,5.795,5.795,0,0,1,8.231-4.873,13.657,13.657,0,0,0,5,1.33l2.42.132a1.291,1.291,0,0,1,1.219,1.36l-.324,5.926a1.292,1.292,0,0,1-1.36,1.219l-2.42-.132a13.66,13.66,0,0,0-5.12.778,5.792,5.792,0,0,1-1.865.307m-.02-8.881a3.176,3.176,0,0,0-3.188,2.975,3.1,3.1,0,0,0,.81,2.268,3.248,3.248,0,0,0,3.434.885,16.221,16.221,0,0,1,6.09-.91l1.13.062.183-3.348-1.13-.062a16.223,16.223,0,0,1-5.954-1.568,3.229,3.229,0,0,0-1.194-.3c-.06,0-.12-.005-.179-.005" transform="translate(-826.378 -1515.856)" fill="#0062fe"/><path d="M766.972,1576.3c1.857.013,3.714.121,5.571.225.249.015.489.229.885.427.045.39.252.892.1,1.24-.171.389-.662.9-1.016.9-1.887.012-3.781-.08-5.664-.221a1.143,1.143,0,0,1-1.025-1.336,1.161,1.161,0,0,1,1.148-1.238" transform="translate(-765.822 -1536.789)" fill="#0062fe"/><path d="M812.158,1494.035a1.3,1.3,0,0,1,1.9.182c.233.249.436.526.652.79a.025.025,0,0,0,.009-.006c.637.8,1.284,1.6,1.907,2.411a1.4,1.4,0,0,1-.127,2,1.377,1.377,0,0,1-1.979-.307c-.858-1.062-1.687-2.148-2.522-3.232a1.279,1.279,0,0,1,.157-1.842" transform="translate(-803.784 -1468.412)" fill="#0062fe"/><path d="M809.354,1642.353a1.287,1.287,0,0,1,.085,1.909c-.7.792-1.443,1.541-2.168,2.308l-.01-.011a9.659,9.659,0,0,1-.847.864,1.245,1.245,0,0,1-1.773-.06,1.213,1.213,0,0,1-.114-1.766c.958-1.1,1.951-2.171,2.986-3.2a1.243,1.243,0,0,1,1.84-.047" transform="translate(-797.59 -1591.151)" fill="#0062fe"/><path d="M933.654,1357.154a3.293,3.293,0,0,0-4.136.024,1.394,1.394,0,0,1-1.6.329c.076-.2.138-.384.214-.561,1-2.321.561-3.571-1.674-4.8q-4.845-2.663-9.692-5.319h-1.546a3.53,3.53,0,0,0-2.142,1.968c-1.491,4.022-3.008,8.036-4.473,12.07a2.851,2.851,0,0,0,1.345,3.609,1.02,1.02,0,0,1,.653,1.212,9.593,9.593,0,0,1-.425,1.557.848.848,0,0,1-1.047.6,2.908,2.908,0,0,0-3.22,2.448c-.222,1.123-.372,2.259-.553,3.389-.484,3.023-.976,6.047-1.446,9.072a3.057,3.057,0,0,0,2.2,3.669c.248.09.594.384.6.586a15.777,15.777,0,0,1-.2,2.514c-.033.2-.351.437-.587.523a3.072,3.072,0,0,0-2.378,3.487q.325,6.134.677,12.264a3,3,0,0,0,2.676,2.986,1.156,1.156,0,0,1,1.092.883,6.427,6.427,0,0,1,.308,1.415,1.544,1.544,0,0,1-.914,1.724,2.779,2.779,0,0,0-1.4,3.437q2.015,6.2,4.144,12.366a2.944,2.944,0,0,0,3.38,1.889c.923-.164,1.319.017,1.546.928a4.106,4.106,0,0,1-.031,1.586,1.41,1.41,0,0,0,.813,1.689,1.364,1.364,0,0,0,1.737-.858,7.287,7.287,0,0,0,.26-2.6,11.268,11.268,0,0,0-.857-2.416c.647-.322,1.334-.67,2.027-1.007s1.367-.654,2.068-.988c.188.5.315.906.494,1.291a3.979,3.979,0,0,0,2.994,2.328,1.441,1.441,0,0,0,1.8-1.045c.177-.782-.281-1.412-1.209-1.661-.11-.029-.224-.052-.331-.09-.728-.263-.878-.894-1.036-1.553-.155-.64.257-.825.677-1.1a3,3,0,0,0,1.357-3.116c-.066-.472-.167-.938-.3-1.7a17.66,17.66,0,0,1,1.87.751c2.163,1.183,4.285.386,4.921-1.877a3.206,3.206,0,0,0-1.338-3.531c-.222-.162-.446-.319-.68-.486a3.235,3.235,0,0,0,.358-3.232,3.7,3.7,0,0,0-3.738-2.066,3.212,3.212,0,0,0-2.924,2.708c-.145.577-.367,1.054-1.047,1.2-.059-.179-.107-.31-.143-.444-.62-2.316-1.329-2.874-3.721-2.949a.905.905,0,0,1-.542-.165c-.849-.746-.413-3.213.622-3.661a3.033,3.033,0,0,0,1.959-2.51c.06-.48.119-.961.212-1.722.653.5,1.212.852,1.687,1.3a3.166,3.166,0,0,0,4.415.3,3.243,3.243,0,0,0,.329-4.621c-.155-.193-.32-.377-.492-.582a3.274,3.274,0,0,0,1.262-2.819,3.614,3.614,0,0,0-2.949-3.168,3.294,3.294,0,0,0-3.679,1.735c-.3.508-.618.95-1.374.89,0-.453.017-.88,0-1.305a2.851,2.851,0,0,0-2.213-2.824c-1.043-.174-1.245-.8-1.212-1.6a10.325,10.325,0,0,1,.36-1.92.979.979,0,0,1,.945-.806,2.94,2.94,0,0,0,2.483-2.207c.136-.429.257-.863.474-1.591.587.7,1.057,1.209,1.464,1.765a3.11,3.11,0,0,0,4.2,1.116,3.24,3.24,0,0,0,1.3-4.511c-.116-.222-.245-.437-.369-.656l.25.109a11.208,11.208,0,0,0,1.439-2.407,3.528,3.528,0,0,0-6.05-3.123,7.649,7.649,0,0,1-1.293.885l-.22-.222c.079-.468.17-.937.236-1.407a2.7,2.7,0,0,0-1.262-2.889,1.585,1.585,0,0,1-.8-1.946,8.064,8.064,0,0,1,.765-1.794,1.111,1.111,0,0,1,1.178-.613,2.849,2.849,0,0,0,2.676-1.553c.253-.429.487-.869.852-1.526a18.92,18.92,0,0,1,.973,1.7,3.631,3.631,0,0,0,2.214,2.245,3.09,3.09,0,0,0,3.149-.878,3.2,3.2,0,0,0,.787-3.333,7.517,7.517,0,0,0-.246-.711,3.284,3.284,0,0,0,2.371-2.025,3.546,3.546,0,0,0-1.315-4.039m-14.6,56.021c.641-.122.973.036,1.1.687a11.415,11.415,0,0,0,.339,1.15c.4,1.319.787,1.61,2.14,1.6a4.183,4.183,0,0,0,4.036-3.13c.09-.287.2-.7.411-.785a1.236,1.236,0,0,1,.928.16c.094.052.059.523-.052.735-.911,1.734-.513,3.084,1.181,4.143.258.16.344.6.51.906a2.728,2.728,0,0,1-.966-.114,4.656,4.656,0,0,0-4.814-.195,1.776,1.776,0,0,0-.985,2.293c.448,2.185.449,2.19-1.577,3.173-2.571,1.248-5.148,2.483-7.717,3.734-.492.241-.813.288-1.024-.363-1.252-3.86-2.538-7.71-3.807-11.565a3.275,3.275,0,0,1-.069-.522c.83-.158,1.634-.315,2.44-.461,2.643-.482,5.291-.943,7.931-1.45m-8.406-4.919,4.718-.9c.067,1.221.129,2.4.2,3.7l-4.292.763-.625-3.564m7.137-13.706a9.95,9.95,0,0,0-.009,1.2c0,1.389.322,1.8,1.684,2.164a4.152,4.152,0,0,0,4.7-1.975c.281-.425.541-.852,1.152-.5.456.269.6.553.179,1.014-1.486,1.646-1.469,2.748.05,4.463.36.406.408.732-.177,1.109-.245-.225-.523-.453-.764-.713a4.5,4.5,0,0,0-4.783-1.221,1.64,1.64,0,0,0-1.178,1.612c0,.341-.064.683-.1,1.025-.153,1.589.134,1.319-1.481,1.636-3.115.608-6.24,1.174-9.355,1.779-.518.1-.807.066-.835-.566-.181-4.146-.384-8.29-.577-12.435a2.391,2.391,0,0,1,.067-.41c1.272.109,2.516.212,3.76.32,2.28.2,4.559.418,6.841.6.6.047.89.255.818.9m-8.268-4.33v-3.471h5.095c-.119,1.317-.229,2.548-.351,3.9-1.536-.139-3.163-.289-4.744-.432m15.915-12.834c.331-.315.62-.72,1.155-.322.468.349.473.749-.012,1.074-1.755,1.179-2.035,2.431-.938,4.287.257.432.343.787-.336,1.088-.218-.31-.418-.578-.606-.857a4.546,4.546,0,0,0-4.589-2.2,1.756,1.756,0,0,0-1.412,1.321c-.68,2.228-.694,2.228-2.987,2.178-2.746-.06-5.493-.15-8.24-.182-.723-.009-.961-.215-.839-.961q.963-5.842,1.854-11.7c.091-.6.341-.715.859-.553,3.246,1.016,6.491,2.037,9.744,3.034.477.146.56.4.458.83-.136.585-.239,1.178-.362,1.765a1.56,1.56,0,0,0,.7,1.7,4.206,4.206,0,0,0,5.549-.513m-12.781-8.581c.308-1.181.587-2.247.882-3.375,1.584.355,3.244.725,4.871,1.086-.368,1.233-.723,2.412-1.105,3.688-1.5-.455-3.1-.933-4.647-1.4m19.341-8.291c-2.018.854-2.5,2-1.743,3.976.093.246-.079.6-.129.9-.28-.164-.659-.262-.823-.5a23.144,23.144,0,0,0-1.2-2.033,4.234,4.234,0,0,0-1.591-1.116c-1.625-.68-2.4-.356-3.19,1.19-.832,1.62-.832,1.625-2.6,1.247-2.908-.625-5.811-1.269-8.723-1.878-.637-.133-.871-.312-.6-1.021q2.1-5.486,4.115-11.006c.263-.723.549-.775,1.183-.42q4.267,2.384,8.578,4.69c.535.286.723.572.427,1.136a13.646,13.646,0,0,0-.529,1.267c-.463,1.157-.386,1.744.64,2.443a18.63,18.63,0,0,0,2.648,1.262c.952-.42,1.825-.744,2.633-1.186.5-.277.842-.284,1.157.193.258.387.215.663-.262.864" transform="translate(-879.824 -1346.828)" fill="#8b8b8b"/></svg>