<svg xmlns="http://www.w3.org/2000/svg" width="74.914" height="70.718" viewBox="0 0 74.914 70.718"><path d="M1067.1,733.645a47.2,47.2,0,0,0-3.285-6.564,1.227,1.227,0,0,0-2.147.033,48.787,48.787,0,0,0-3.222,6.407,4.5,4.5,0,1,0,8.654.124m-3.24,2.657a1.9,1.9,0,0,1-2.235-.022,1.75,1.75,0,0,1-.635-2.12c.5-1.229,1.086-2.419,1.637-3.626l.27.015c.551,1.21,1.145,2.4,1.637,3.638a1.74,1.74,0,0,1-.675,2.114" transform="translate(-1002.151 -719.198)" fill="#0062fe"/><path d="M793.506,783.022a1.205,1.205,0,0,1-1.531-.9c-.815-3.41-3.27-5.343-6.167-6.814a26.248,26.248,0,0,0-4.421-1.7c-2.973-.882-5.5-2.281-6.936-5.2-.1-.2-.417-.3-.643-.428-.073-.043-.183-.015-.275-.034-1.06-.234-2.169-.774-3.167-.617-.954.149-1.761,1.084-2.687,1.572a12.548,12.548,0,0,1-16.6-4.632,1.027,1.027,0,0,0-1.21-.544,17.949,17.949,0,0,1-7.468-.69c-5.672-1.841-8.607-5.964-9.433-11.7a15.262,15.262,0,0,1,1.6-9.858,1.312,1.312,0,0,0,.052-.862,7.421,7.421,0,0,1,4.382-9.03,1.44,1.44,0,0,0,.681-.854c1.451-5.452,5.1-8.293,10.78-8.256a3.938,3.938,0,0,0,2.763-.95,13.954,13.954,0,0,1,9.837-3.047,45.742,45.742,0,0,1,6.151.942,2.127,2.127,0,0,0,1.654-.2,6.979,6.979,0,0,1,5.2-.86c.95.2,1.411.783,1.273,1.623-.133.809-.787,1.185-1.77,1.017a4.721,4.721,0,0,0-5.506,3.219c-.357,1.03-.942,1.415-1.78,1.172-.78-.226-1.084-.979-.776-2,.142-.473.342-.927.548-1.471a18.547,18.547,0,0,0-6.738-.72c-3.844.376-6.958,1.959-8.975,5.388a1.219,1.219,0,0,1-1.52.6,1.261,1.261,0,0,1-.938-1.34c.005-.181,0-.363,0-.538-3.24-.521-6.814,2.238-7.405,5.745.222.062.451.138.684.185a7.2,7.2,0,0,1,3.6,1.842A1.4,1.4,0,0,1,747,735.07a1.332,1.332,0,0,1-1.989.032,4.713,4.713,0,0,0-6.84,6.469,3.462,3.462,0,0,1,.5.667,1.287,1.287,0,0,1-1.219,1.868,7.551,7.551,0,0,1-1.112-.226c-1.4,4.53-1.3,8.9,1.535,12.819,2.941,4.075,7.306,4.634,11.924,4.359a27.632,27.632,0,0,1,.368-3.657,25.56,25.56,0,0,1,1.238-3.322c-.7-.436-1.455-.959-2.266-1.38a1.469,1.469,0,0,0-.952.073,7.287,7.287,0,0,1-7.089-1.382,1.429,1.429,0,0,1-.471-2.038,1.33,1.33,0,0,1,2.105-.12,4.442,4.442,0,0,0,4.328,1.023c-.2-.942-.424-1.832-.57-2.735a3.416,3.416,0,0,1,.049-1.292,1.2,1.2,0,0,1,1.38-.983,1.239,1.239,0,0,1,1.213,1.193c.058.462.011.94.1,1.391a4.7,4.7,0,0,0,9.287-.32c.209-1.43.993-1.825,2.3-1.2,4.793,2.3,9.452,1.574,14.156-.621a8.806,8.806,0,0,1-1.6-4.788,5.129,5.129,0,0,1,.039-1.019,1.233,1.233,0,0,1,1.439-1.142,1.265,1.265,0,0,1,1.187,1.322,13.146,13.146,0,0,0,.213,2.036,5.061,5.061,0,0,0,4.515,3.866c.43.065.864.1,1.294.17a1.269,1.269,0,0,1,1.247,1.436,1.238,1.238,0,0,1-1.482,1.181c-1.1-.088-2.195-.3-3.533-.486.4.871.755,1.666,1.142,2.445.137.275.372.5.535.761a1.267,1.267,0,0,1-.273,1.828,1.17,1.17,0,0,1-1.813-.2c-.755-1.2-1.357-2.488-2-3.752a5.914,5.914,0,0,1-.292-.944c-4.8,2.139-9.645,2.759-14.578.978a26.566,26.566,0,0,1-1.492,2.328,7.443,7.443,0,0,1-3.872,2.46,2.921,2.921,0,0,0-1.357.856,7.211,7.211,0,0,0,1.428,10.6,10.152,10.152,0,0,0,12.81-.565,2.133,2.133,0,0,1,2.423-.506,20.993,20.993,0,0,0,11.318.422c.181-.039.359-.1.544-.125a1.3,1.3,0,0,1,1.581.968,1.251,1.251,0,0,1-1.006,1.614c-1.456.3-2.933.5-4.4.729-.391.06-.793.047-1.436.078.357.4.535.752.817.9a25.253,25.253,0,0,0,3.913,1.864c3.642,1.144,7.091,2.619,9.646,5.549a23,23,0,0,1,2.387,3.952,2.81,2.81,0,0,1,.234,1.086,1.227,1.227,0,0,1-1.028,1.441" transform="translate(-732.772 -712.343)" fill="#8b8b8b"/><path d="M1068.495,922.984a11.2,11.2,0,0,1-3.385,5.881,4.307,4.307,0,0,0-1.006,1.49,13.6,13.6,0,0,1-5.814,7.05c-.131.075-.251.17-.443.3.351.426.684.821,1,1.222a15.373,15.373,0,0,1,3.554,9.6c.015,1.1-.527,1.759-1.368,1.742-.81-.019-1.327-.647-1.339-1.694a12.986,12.986,0,0,0-4.15-9.271,1.331,1.331,0,0,0-1.484-.456,4.068,4.068,0,0,1-1.2.118,1.316,1.316,0,0,1-.278-2.612c.669-.134,1.354-.2,2.014-.366a9.478,9.478,0,0,0,5.58-3.939,3.721,3.721,0,0,0,.277-.48c.022-.045-.006-.114-.017-.237a10.556,10.556,0,0,1-5.422-.084,2.118,2.118,0,0,1-1.208-.867,1.427,1.427,0,0,1,.189-1.339,2.336,2.336,0,0,1,1.483-.424,22.915,22.915,0,0,0,3.859.112,7.9,7.9,0,0,0,6.493-6.168c.017-.06.019-.123.034-.183.247-.948.881-1.413,1.664-1.225a1.392,1.392,0,0,1,.966,1.827" transform="translate(-996.61 -880.334)" fill="#8b8b8b"/><path d="M869.562,788.5a6.223,6.223,0,0,1-2.726,4.569c-.249.178-.5.346-.542.372a30.174,30.174,0,0,1,.338,3.9,1.225,1.225,0,0,1-1.955,1.006,2.191,2.191,0,0,1-.639-1.144,8.212,8.212,0,0,1-.047-1.2,1.87,1.87,0,0,0-1.817-1.907c-.6-.12-1.189-.338-1.862-.535-.183.234-.385.5-.6.759a6.3,6.3,0,0,1-5.117,2.421c-.968,0-1.568-.527-1.585-1.333a1.334,1.334,0,0,1,1.531-1.368,3.69,3.69,0,0,0,3.24-5.715,1.306,1.306,0,0,1,.387-2.008,1.258,1.258,0,0,1,1.87.617c.462,1.026.669,2.165,1.054,3.229a1.822,1.822,0,0,0,.735,1.008,3.621,3.621,0,0,0,4.99-2.567c.039-.183.058-.37.1-.55a1.338,1.338,0,1,1,2.638.449" transform="translate(-832.31 -768.574)" fill="#8b8b8b"/><path d="M903.117,933.978a1.286,1.286,0,0,1-1.548-.882,5.1,5.1,0,0,0-.52-1.081c-.493-.632-1.015-.987-1.86-.351a5.116,5.116,0,0,1-3.535.909,1.314,1.314,0,0,1-1.367-1.339,1.3,1.3,0,0,1,1.3-1.32c2.556-.265,3.1-.727,3.829-3.251a1.3,1.3,0,0,1,1.511-1.069c.748.086,1.18.718,1.122,1.776-.866,1.208.071,1.957,1,2.868a5.121,5.121,0,0,1,1.075,2.213,1.18,1.18,0,0,1-1,1.527" transform="translate(-866.476 -884.03)" fill="#8b8b8b"/><path d="M1060.318,884.96a1.286,1.286,0,0,1-1.548-.882,5.108,5.108,0,0,0-.52-1.081c-.493-.632-1.015-.987-1.86-.351a5.115,5.115,0,0,1-3.535.909,1.314,1.314,0,0,1-1.367-1.339,1.3,1.3,0,0,1,1.3-1.32c2.556-.265,3.1-.727,3.829-3.251a1.3,1.3,0,0,1,1.511-1.069c.748.086,1.18.718,1.122,1.776-.866,1.208.071,1.957,1,2.868a5.121,5.121,0,0,1,1.075,2.213,1.18,1.18,0,0,1-1,1.527" transform="translate(-996.61 -843.452)" fill="#8b8b8b"/><path d="M1015.981,712.873a14.307,14.307,0,1,1,14.307-14.307,14.323,14.323,0,0,1-14.307,14.307m0-26.031a11.724,11.724,0,1,0,11.724,11.724,11.738,11.738,0,0,0-11.724-11.724" transform="translate(-955.374 -684.259)" fill="#0062fe"/><path d="M1138.276,862.586a1.291,1.291,0,0,1-.9-2.213,7.212,7.212,0,0,0,2.154-7.031,10.771,10.771,0,0,0-1.513-3.579,1.291,1.291,0,1,1,2.093-1.513,13.2,13.2,0,0,1,1.945,4.549,9.778,9.778,0,0,1-2.87,9.417,1.287,1.287,0,0,1-.9.37" transform="translate(-1067.387 -819.571)" fill="#8b8b8b"/></svg>