<svg xmlns="http://www.w3.org/2000/svg" width="73.219" height="73.098" viewBox="0 0 73.219 73.098"><path d="M1521.5,1102.518c.854-1.649,1.793-3.255,2.728-4.863.127-.215.426-.331.782-.595.368.137.909.181,1.151.473a1.569,1.569,0,0,1,.343,1.315c-.846,1.688-1.787,3.333-2.767,4.947a1.142,1.142,0,0,1-1.655.307,1.161,1.161,0,0,1-.583-1.584" transform="translate(-1492.8 -1031.825)" fill="#fff"/><path d="M1469.007,1042.831a1.305,1.305,0,0,1,1.025-1.613c.327-.094.667-.15,1-.223a.023.023,0,0,0,0-.011c1.005-.2,2.006-.42,3.014-.606a1.4,1.4,0,0,1,1.729,1.022,1.377,1.377,0,0,1-1.172,1.625c-1.336.283-2.68.529-4.024.781a1.279,1.279,0,0,1-1.57-.975" transform="translate(-1449.408 -984.876)" fill="#fff"/><path d="M1606.4,1104.114a1.286,1.286,0,0,1,1.74.791c.39.98.719,1.985,1.074,2.979l-.015,0a9.653,9.653,0,0,1,.386,1.146,1.246,1.246,0,0,1-.858,1.553,1.213,1.213,0,0,1-1.626-.7c-.545-1.352-1.05-2.724-1.495-4.112a1.243,1.243,0,0,1,.793-1.661" transform="translate(-1562.465 -1037.577)" fill="#fff"/><path d="M1416.2,783.022a1.205,1.205,0,0,1-1.531-.9c-.815-3.41-3.27-5.343-6.167-6.814a26.253,26.253,0,0,0-4.421-1.7c-2.973-.882-5.5-2.281-6.936-5.2-.1-.2-.417-.3-.643-.428-.073-.043-.183-.015-.275-.034-1.06-.234-2.169-.774-3.167-.617-.953.149-1.761,1.084-2.686,1.572a12.548,12.548,0,0,1-16.6-4.632,1.027,1.027,0,0,0-1.209-.544,17.95,17.95,0,0,1-7.469-.69c-5.672-1.841-8.607-5.964-9.433-11.7a15.263,15.263,0,0,1,1.6-9.858,1.311,1.311,0,0,0,.052-.862,7.421,7.421,0,0,1,4.382-9.03,1.44,1.44,0,0,0,.681-.854c1.451-5.452,5.1-8.293,10.78-8.256a3.937,3.937,0,0,0,2.763-.95,13.954,13.954,0,0,1,9.837-3.047,45.741,45.741,0,0,1,6.151.942,2.127,2.127,0,0,0,1.654-.2,6.979,6.979,0,0,1,5.2-.86c.95.2,1.411.783,1.273,1.623-.133.809-.787,1.185-1.77,1.017a4.721,4.721,0,0,0-5.506,3.219c-.357,1.03-.942,1.415-1.78,1.172-.779-.226-1.084-.979-.776-2,.142-.473.342-.927.548-1.471a18.546,18.546,0,0,0-6.737-.72c-3.844.376-6.958,1.959-8.975,5.388a1.219,1.219,0,0,1-1.52.6,1.261,1.261,0,0,1-.938-1.34c.006-.181,0-.363,0-.538-3.24-.521-6.814,2.238-7.4,5.745.222.062.45.138.684.185a7.2,7.2,0,0,1,3.6,1.842,1.4,1.4,0,0,1,.217,1.995,1.332,1.332,0,0,1-1.989.032,4.713,4.713,0,0,0-6.84,6.469,3.469,3.469,0,0,1,.5.667,1.288,1.288,0,0,1-1.219,1.868,7.553,7.553,0,0,1-1.112-.226c-1.4,4.53-1.3,8.9,1.535,12.819,2.941,4.075,7.306,4.634,11.924,4.359a27.643,27.643,0,0,1,.368-3.657,25.6,25.6,0,0,1,1.238-3.322c-.7-.436-1.454-.959-2.266-1.38a1.468,1.468,0,0,0-.951.073,7.288,7.288,0,0,1-7.089-1.382,1.429,1.429,0,0,1-.471-2.038,1.33,1.33,0,0,1,2.105-.12,4.442,4.442,0,0,0,4.328,1.023c-.2-.942-.424-1.832-.57-2.735a3.417,3.417,0,0,1,.049-1.292,1.2,1.2,0,0,1,1.38-.983,1.239,1.239,0,0,1,1.213,1.193c.058.462.011.94.1,1.391a4.7,4.7,0,0,0,9.288-.32c.209-1.43.993-1.825,2.3-1.2,4.793,2.3,9.452,1.574,14.156-.621a8.806,8.806,0,0,1-1.6-4.788,5.152,5.152,0,0,1,.039-1.019,1.233,1.233,0,0,1,1.439-1.142,1.265,1.265,0,0,1,1.187,1.322,13.131,13.131,0,0,0,.213,2.036,5.061,5.061,0,0,0,4.515,3.866c.43.065.864.1,1.293.17a1.269,1.269,0,0,1,1.247,1.436,1.238,1.238,0,0,1-1.482,1.181c-1.1-.088-2.2-.3-3.533-.486.4.871.755,1.666,1.142,2.445.136.275.372.5.535.761a1.268,1.268,0,0,1-.273,1.828,1.17,1.17,0,0,1-1.813-.2c-.755-1.2-1.357-2.488-2-3.752a5.927,5.927,0,0,1-.292-.944c-4.8,2.139-9.645,2.759-14.578.978a26.58,26.58,0,0,1-1.492,2.328,7.443,7.443,0,0,1-3.872,2.46,2.92,2.92,0,0,0-1.357.856,7.211,7.211,0,0,0,1.428,10.6,10.152,10.152,0,0,0,12.81-.565,2.133,2.133,0,0,1,2.423-.506,20.993,20.993,0,0,0,11.318.422c.181-.039.359-.1.544-.125a1.3,1.3,0,0,1,1.582.968,1.251,1.251,0,0,1-1.006,1.614c-1.456.3-2.933.5-4.4.729-.391.06-.793.047-1.436.078.357.4.535.752.817.9a25.263,25.263,0,0,0,3.913,1.864c3.642,1.144,7.091,2.619,9.646,5.549a23.011,23.011,0,0,1,2.387,3.952,2.807,2.807,0,0,1,.234,1.086,1.227,1.227,0,0,1-1.028,1.441" transform="translate(-1355.461 -718.184)" fill="#fff"/><path d="M1691.183,922.984a11.2,11.2,0,0,1-3.385,5.881,4.305,4.305,0,0,0-1.006,1.49,13.6,13.6,0,0,1-5.814,7.05c-.131.075-.251.17-.443.3.351.426.684.821,1,1.222a15.371,15.371,0,0,1,3.554,9.6c.015,1.1-.527,1.759-1.368,1.742-.81-.019-1.327-.647-1.339-1.694a12.986,12.986,0,0,0-4.15-9.271,1.331,1.331,0,0,0-1.484-.456,4.07,4.07,0,0,1-1.2.118,1.316,1.316,0,0,1-.278-2.612c.669-.134,1.353-.2,2.013-.366a9.478,9.478,0,0,0,5.58-3.939,3.722,3.722,0,0,0,.277-.48c.022-.045-.006-.114-.017-.237a10.556,10.556,0,0,1-5.422-.084,2.117,2.117,0,0,1-1.208-.867,1.427,1.427,0,0,1,.189-1.339,2.335,2.335,0,0,1,1.482-.424,22.915,22.915,0,0,0,3.859.112,7.9,7.9,0,0,0,6.493-6.168c.017-.06.019-.123.034-.183.247-.948.881-1.413,1.664-1.225a1.391,1.391,0,0,1,.966,1.827" transform="translate(-1619.298 -886.176)" fill="#fff"/><path d="M1492.251,788.5a6.223,6.223,0,0,1-2.726,4.569c-.249.178-.5.346-.542.372a30.174,30.174,0,0,1,.338,3.9,1.225,1.225,0,0,1-1.955,1.006,2.19,2.19,0,0,1-.639-1.144,8.186,8.186,0,0,1-.047-1.2,1.87,1.87,0,0,0-1.817-1.907c-.6-.12-1.189-.338-1.862-.535-.183.234-.385.5-.6.759a6.3,6.3,0,0,1-5.117,2.421c-.968,0-1.568-.527-1.585-1.333a1.334,1.334,0,0,1,1.531-1.368,3.691,3.691,0,0,0,3.24-5.715,1.306,1.306,0,0,1,.387-2.008,1.259,1.259,0,0,1,1.87.617c.462,1.026.669,2.165,1.054,3.229a1.822,1.822,0,0,0,.735,1.008,3.621,3.621,0,0,0,4.99-2.567c.039-.183.058-.37.1-.55a1.338,1.338,0,1,1,2.638.449" transform="translate(-1454.999 -774.415)" fill="#fff"/><path d="M1525.8,933.978a1.286,1.286,0,0,1-1.548-.882,5.124,5.124,0,0,0-.52-1.081c-.494-.632-1.015-.987-1.86-.351a5.115,5.115,0,0,1-3.535.909,1.314,1.314,0,0,1-1.367-1.339,1.3,1.3,0,0,1,1.3-1.32c2.556-.265,3.1-.727,3.829-3.251a1.3,1.3,0,0,1,1.511-1.069c.748.086,1.179.718,1.122,1.776-.866,1.208.071,1.957,1,2.868a5.118,5.118,0,0,1,1.075,2.213,1.18,1.18,0,0,1-1,1.527" transform="translate(-1489.164 -889.871)" fill="#fff"/><path d="M1538.172,994.853a.454.454,0,0,0,.044-.114l2.509-2.164.012-.011a1.656,1.656,0,0,0,.193-.2,3.7,3.7,0,0,1,1.032-.819l.011-.006a2.392,2.392,0,0,1,1.858-.218l1.547.461a12.873,12.873,0,0,1,1.148,1.408,1.049,1.049,0,0,1-.429,1.5,1.092,1.092,0,0,1-1.558-.452c-.329-.64-.795-.943-1.463-.7-.7.255-.783.847-.6,1.506a.934.934,0,0,1-.529,1.247,3.207,3.207,0,0,1-1.367-.146c-.105-.018-.191-.159-.312-.266a2.321,2.321,0,0,0-.192,2.492,2.262,2.262,0,0,0,2,1.337,1.4,1.4,0,0,0,.873-.373c.668-.572,1.255-.7,1.74-.227a1.161,1.161,0,0,1,.039,1.7c-.129.177-.039.512-.051.777.265,0,.575.1.786,0,1.057-.517,1.307-.47,2,.524a1.535,1.535,0,0,0,1.919.64,1.51,1.51,0,0,0,.849-1.761c-.2-1.005.01-1.538.691-1.734.637-.183,1.093.133,1.5,1.031.02.045.071.074.276.279.246-.408.616-.761.64-1.138a2.556,2.556,0,0,0-.442-1.254c-.1-.175-.4-.224-.6-.347a1.131,1.131,0,1,1,.9-2.077,3.612,3.612,0,0,1,2.434,2.771h0a4.714,4.714,0,0,1,.007,1.38h0a4.294,4.294,0,0,1-1.106,1.976,28.013,28.013,0,0,0-3.884,2.713,3.448,3.448,0,0,1-4.256-.263,1.611,1.611,0,0,0-.974-.29,2.9,2.9,0,0,1-2.886-1.529.979.979,0,0,0-.619-.466,4.8,4.8,0,0,1-3.735-7.181" transform="translate(-1506.176 -944.213)" fill="#fff"/><path d="M1685.672,839.1a1.286,1.286,0,0,1-1.548-.883,5.1,5.1,0,0,0-.52-1.081c-.493-.632-1.015-.987-1.86-.351a5.116,5.116,0,0,1-3.535.909,1.314,1.314,0,0,1-1.367-1.339,1.3,1.3,0,0,1,1.3-1.32c2.556-.265,3.1-.727,3.829-3.251a1.3,1.3,0,0,1,1.51-1.069c.748.086,1.18.718,1.122,1.776-.866,1.208.071,1.957,1,2.868a5.121,5.121,0,0,1,1.075,2.213,1.18,1.18,0,0,1-1,1.527" transform="translate(-1621.505 -811.333)" fill="#fff"/><path d="M1653.817,754.96a1.292,1.292,0,0,1-1.187-1.8,16.073,16.073,0,0,0-.958-13.4c-.981-1.721-2.732-3.851-5.505-4.219a1.292,1.292,0,0,1-1.041-.83c-3.677-9.877-12.7-7.015-13.082-6.888a1.291,1.291,0,0,1-.823-2.448,14.56,14.56,0,0,1,6.406-.427c3.1.5,7.226,2.342,9.647,8.171a10.492,10.492,0,0,1,6.642,5.363,18.816,18.816,0,0,1,1.089,15.69,1.291,1.291,0,0,1-1.188.785" transform="translate(-1583.015 -723.64)" fill="#fff"/></svg>