<svg xmlns="http://www.w3.org/2000/svg" xmlns:xlink="http://www.w3.org/1999/xlink" width="67.927" height="101.245" viewBox="0 0 67.927 101.245"><defs><clipPath id="a"><rect width="67.927" height="101.245" fill="none"/></clipPath></defs><g style="mix-blend-mode:multiply;isolation:isolate"><g clip-path="url(#a)"><path d="M28.783,54.648v9.2a24.141,24.141,0,0,1,2.946-.12h1.623c.18-2.585-2.4-9.078-4.569-9.078" transform="translate(-4.749 -9.016)" fill="#e8e8e8" fill-rule="evenodd"/><path d="M12.712,69.759c2.4,1.263,6.493-1.984,6.613-1.864.3.361-.721,3.066-.721,3.667,0,.721-4.629.6-5.772.541-.3,0-.18-2.224-.12-2.345" transform="translate(-2.085 -11.201)" fill="#e8e8e8" fill-rule="evenodd"/><path d="M11.407,77.246c.421.24.9-.12,1.383-.12a9.3,9.3,0,0,0,3.186-.24c.361-.12.481-.782.782-.9a8.8,8.8,0,0,1,1.2-.6c.361.361-.361,3.427-.361,4.088s-4.93.18-6.072.12c-.361-.06-.24-2.225-.12-2.345" transform="translate(-1.862 -12.435)" fill="#e8e8e8" fill-rule="evenodd"/><path d="M28.484,68.58l-.421,3.728,4.629.782.361-4.689Z" transform="translate(-4.63 -11.285)" fill="#e8e8e8" fill-rule="evenodd"/><path d="M27.656,75.528l-.6,4.329,4.389.661.6-4.028Z" transform="translate(-4.463 -12.46)" fill="#e8e8e8" fill-rule="evenodd"/><path d="M23.265,97.2l-.962,3.848,4.209,1.443L27.593,98.4Z" transform="translate(-3.679 -16.036)" fill="#e8e8e8" fill-rule="evenodd"/><path d="M26.636,82.944l-.661,4.028,4.088,1.082.661-4.148Z" transform="translate(-4.285 -13.684)" fill="#e8e8e8" fill-rule="evenodd"/><path d="M21.56,104.256l-.842,3.848,4.329,1.142.782-3.728Z" transform="translate(-3.418 -17.2)" fill="#e8e8e8" fill-rule="evenodd"/><path d="M24.872,90.432l-.842,4.209,4.329,1.142.962-4.028Z" transform="translate(-3.965 -14.919)" fill="#e8e8e8" fill-rule="evenodd"/><path d="M20.132,110.592l-.782,3.788,4.75.12.481-2.886Z" transform="translate(-3.192 -18.245)" fill="#e8e8e8" fill-rule="evenodd"/><path d="M10.291,84.653l-.3,1.623,2.826.361h3.247l1.142-4.148-.9-.12L14.62,84.292Z" transform="translate(-1.648 -13.589)" fill="#e8e8e8" fill-rule="evenodd"/><path d="M6.331,97.757l-.3,1.563,2.826.361,3.186.06.6-1.924,1.082-2.224-1.383-.12L10.6,97.336Z" transform="translate(-0.995 -15.751)" fill="#e8e8e8" fill-rule="evenodd"/><path d="M8.359,91.253l-.24,1.683L11,93.3h3.367l1.082-4.329-.782-.12-1.8,1.984Z" transform="translate(-1.339 -14.658)" fill="#e8e8e8" fill-rule="evenodd"/><path d="M4.387,104.3l-.3,1.683,2.946.361,2.946.12.782-2.044.661-2.345-.721-.12-1.8,1.984Z" transform="translate(-0.674 -16.82)" fill="#e8e8e8" fill-rule="evenodd"/><path d="M.367,111.353l-.24,1.683,2.886.361,3.367.06,2.345-4.269-2.044-.18-1.8,1.984Z" transform="translate(-0.021 -17.984)" fill="#e8e8e8" fill-rule="evenodd"/><path d="M13.294,62.368c2.164.9,5.411-2.225,5.531-2.1.3.24-.361,2.645-.3,3.186.06.6-3.968.9-4.99.9-.24.06-.361-1.864-.24-1.984" transform="translate(-2.185 -9.942)" fill="#e8e8e8" fill-rule="evenodd"/><path d="M51.679,0A20.416,20.416,0,0,1,64.786,32.766c-2.164-2.1-3.968-4.389-4.269-7.816-.06-.721.361-1.323.361-1.984v.06a19.827,19.827,0,0,0,.721-7.094A20.356,20.356,0,0,0,51.679,0" transform="translate(-8.526)" fill="#0062fe" fill-rule="evenodd"/><path d="M72.3,48.119l2.044-.962,2.705-.9,1.383-1.924c-3.547-3.667-7.816-6.193-8.3-11.664,0-.661.361-1.263.421-1.924l-3.006,7.635c.9.9,1.924,1.8,2.886,2.766a1.362,1.362,0,0,1,.721,1.263,1.542,1.542,0,0,1-1.864,1.2l-2.4.842-1.744.842v.06a2.491,2.491,0,0,0-.361,1.383Z" transform="translate(-10.688 -5.072)" fill="#0062fe" fill-rule="evenodd"/><path d="M79.03,46.007a1.691,1.691,0,0,1,1.623,1.623,1.542,1.542,0,0,1-1.864,1.2,1.6,1.6,0,0,1-1.623-1.563,1.622,1.622,0,0,1,1.864-1.263" transform="translate(-12.73 -7.589)" fill="#0062fe" fill-rule="evenodd"/><path d="M69.308,51.36c-.782,1.142-.06,3.487.06,4.75.06,1.022-3.487,1.142-2.705,1.8,4.449,3.848.481,1.864.782,5.531.24,3.367,2.946,8.177-2.525,8.6-2.525.24-5.471.661-7.816.3a39.38,39.38,0,0,0-5.351-.6c-.6,0-6.854.481-6.914.12A24.817,24.817,0,0,0,47.3,69.336c.782.06,1.623.18,2.345.3,2.345.361,5.291-.06,7.816-.24,5.471-.421,2.766-5.291,2.465-8.658-.24-3.607,3.667-1.683-.661-5.411a6.983,6.983,0,0,1,1.623-.842c.962-.3,8.237-5.471,8.417-3.126" transform="translate(-7.397 -8.373)" fill="#0062fe" fill-rule="evenodd"/><path d="M43.445,98.2c.12-.541-.541-6.072-.6-6.734-.6-4.81-.721-13.167,5.772-16.113V73.309a1.854,1.854,0,0,1-.6-.06c-1.623-.24-3.728-.541-5.351-.6-.18,0-.9.06-1.744.12-6.253,3.006-6.132,11.243-5.531,15.992,0,.3-.6,23.027-.421,24.469Z" transform="translate(-5.763 -11.985)" fill="#0062fe" fill-rule="evenodd"/><path d="M60.475,36.847c2.285-.24,4.028,0,4.509,1.2a16.572,16.572,0,0,1,.9,4.088h-.06a63.707,63.707,0,0,1-5.351-5.291m5.952,12.145v.3c-.12,3.607-4.99,6.553-7.756,8.116.481-2.224,3.186-1.082-.782-4.509-.782-.661,2.766-.782,2.705-1.8-.12-1.263-.9-3.547-.06-4.75v-.06l1.744-.842,2.4-.842a1.99,1.99,0,0,0,1.383-.361c.18,1.683.24,3.307.361,4.569Zm-17.8,18.4c-4.148,2.886-10.4,6.734-11.784,3.968a9.375,9.375,0,0,1,4.389-4.509c.842-.06,1.563-.12,1.744-.12,1.623.06,3.728.361,5.351.6a2.6,2.6,0,0,0,.3.06" transform="translate(-6.079 -6.065)" fill="#0062fe" fill-rule="evenodd"/><path d="M69.09,34.271c.661-.06,1.323.721,1.383,1.8.12,1.022-.421,1.924-1.142,1.984-.661.06-1.323-.721-1.383-1.8-.12-1.022.421-1.924,1.142-1.984" transform="translate(-11.207 -5.653)" fill="#0062fe" fill-rule="evenodd"/><path d="M22.508,48.3a1.4,1.4,0,1,1-.481,2.705,1.566,1.566,0,0,1-1.383-1.683A1.5,1.5,0,0,1,22.508,48.3" transform="translate(-3.403 -7.963)" fill="#0062fe" fill-rule="evenodd"/><path d="M16.944,51.59c8.9,6.553-4.269,49.781-8.177,52.306H15.38c3.006-13.287,8-26.393,8-39.981,0-6.613-.541-19.479,7.215-19.479,8.357,0,1.924-10.04-2.826-5.17-2.585,2.645-9.68,9.8-10.822,12.325" transform="translate(-1.446 -6.258)" fill="#0062fe" fill-rule="evenodd"/><path d="M23.036,38.364a4.18,4.18,0,0,1,5.832.9,4.119,4.119,0,0,1-1.082,5.772,4.057,4.057,0,0,1-5.772-.9,4.224,4.224,0,0,1,1.022-5.772" transform="translate(-3.511 -6.199)" fill="#0062fe" fill-rule="evenodd"/><path d="M9.637,11.4c1.864-1.263,3.788-1.744,4.269-1.022.541.721-.541,2.345-2.4,3.667-1.8,1.323-3.728,1.744-4.269,1.022-.481-.721.6-2.345,2.4-3.667" transform="translate(-1.174 -1.656)" fill="#0062fe" fill-rule="evenodd"/><path d="M40.117,32a3.569,3.569,0,0,1,4.93,1.2,3.56,3.56,0,0,1-.481,5.05,3.628,3.628,0,0,1-4.99-1.2A3.634,3.634,0,0,1,40.117,32" transform="translate(-6.403 -5.188)" fill="#0062fe" fill-rule="evenodd"/><path d="M46.615,11.093c1.323-.962,3.788.18,5.471,2.585s1.924,5.11.6,6.012c-1.323.962-3.788-.24-5.471-2.585-1.683-2.4-1.924-5.11-.6-6.012" transform="translate(-7.55 -1.774)" fill="#0062fe" fill-rule="evenodd"/><path d="M5.966,37.031c2.645-1.924,6.012-1.744,7.455.3s.481,5.231-2.164,7.154c-2.705,1.864-6.012,1.744-7.515-.3-1.443-2.1-.421-5.291,2.224-7.154" transform="translate(-0.509 -5.888)" fill="#0062fe" fill-rule="evenodd"/><path d="M7.417,23.209a3.411,3.411,0,0,1,4.75.9,3.411,3.411,0,0,1-.661,4.81,3.514,3.514,0,0,1-4.088-5.712" transform="translate(-0.998 -3.73)" fill="#0062fe" fill-rule="evenodd"/><path d="M14.152,22.4a3.133,3.133,0,0,1,4.449.541,3.254,3.254,0,0,1-.962,4.449,3.318,3.318,0,0,1-4.509-.541A3.218,3.218,0,0,1,14.152,22.4" transform="translate(-2.082 -3.584)" fill="#0062fe" fill-rule="evenodd"/><path d="M15.354,15.508a3.019,3.019,0,1,1-.721,4.209,3.025,3.025,0,0,1,.721-4.209" transform="translate(-2.322 -2.462)" fill="#0062fe" fill-rule="evenodd"/><path d="M25.12,16.185a3.832,3.832,0,0,1,5.351.6,3.873,3.873,0,0,1-1.2,5.291,3.838,3.838,0,0,1-5.351-.661,3.857,3.857,0,0,1,1.2-5.231" transform="translate(-3.852 -2.537)" fill="#0062fe" fill-rule="evenodd"/><path d="M17.555,6.243c1.683-1.2,3.848-1.082,4.689.18.9,1.323.3,3.367-1.323,4.569-1.683,1.2-3.848,1.082-4.75-.18-.9-1.323-.3-3.367,1.383-4.569" transform="translate(-2.599 -0.892)" fill="#0062fe" fill-rule="evenodd"/><path d="M35.284,22.494a3.281,3.281,0,0,1,3.788,5.351,3.279,3.279,0,0,1-3.788-5.351" transform="translate(-5.598 -3.615)" fill="#0062fe" fill-rule="evenodd"/><path d="M34.477,9.272c1.323-.962,3.427-.3,4.629,1.383,1.2,1.744,1.142,3.908-.18,4.87s-3.427.3-4.629-1.443c-1.263-1.744-1.142-3.908.18-4.81" transform="translate(-5.513 -1.456)" fill="#0062fe" fill-rule="evenodd"/><path d="M16.562,37.567c-2.465.421-.782,5.651,0,6.734,3.427,4.93-4.509,7.275-8.116,4.569C7,47.788,5.018,44.6,4,43.159c-1.383-1.984.661-3.066,2.1-1.082,1.864,2.645,5.651,6.553,8.658,2.465.9-1.263-.661-2.766-1.744-3.367-1.5-.782.3-7.215-3.547-5.832-1.8.661-4.209,1.082-1.8-.6,2.1-1.5,4.449-2.645,6.433-4.028,1.623-1.142,3.427,2.826,4.028-.782.18-.962,2.1-3.186,3.487-3.367,1.683-.3,7.936,4.088,8.6.12.06-.12,1.864,1.563,2.886,1.563,2.345-.06-3.908,2.465-4.028,2.525-3.427,2.465-5.05-4.329-6.012.962-.3,1.864-5.17,4.75-6.493,5.832" transform="translate(-0.584 -4.38)" fill="#0062fe" fill-rule="evenodd"/><path d="M26.149,36.706c.962-.12,2.345,1.263,3.427.9,2.4-.782,2.585-2.766,4.088-3.788,1.8-1.323,3.006-2.345,5.17-2.285a2.128,2.128,0,0,1,1.8,3.186c-.782,1.5.962,1.744.721,3.247-.18.9-1.443.842-2.4.721-4.509-.782-5.11,4.81-9.138,5.411-2.525.421-3.968,1.263-5.231-1.984-.6-1.443,1.5-5.17,1.563-5.411" transform="translate(-4.038 -5.202)" fill="#0062fe" fill-rule="evenodd"/><path d="M40.388,30.242c1.683.6,4.329-.24,3.066-1.323-1.744-1.563-4.509-.3-5.651-1.924-1.022-1.5-.421-.9-1.443-.18A11.335,11.335,0,0,1,34.5,28.078c-2.224-3.186,2.224-5.531,4.99-5.05,2.1.361,3.667,1.563,5.591,2.946,2.164,1.683,3.487,6.553,1.022,8.3-1.563,1.142-2.525,2.044-3.908.12-1.022-1.443-1.082-3.066-1.8-4.148" transform="translate(-5.592 -3.789)" fill="#0062fe" fill-rule="evenodd"/><path d="M3.112,38.524C-1.457,36.059.166,32.932.828,29.085c.541-3.186-1.443-5.11.481-8.718C2.571,18.022,8.1,15.136,7.8,14.715,5.938,12.13,5.818,12.19,9.786,9.425c.661-.481,8.417-1.383,6.734-3.788-.661-.9,5.531-2.224,6.734-.541,2.164,3.066,5.892.782,6.794,2.1.421.541,3.908,2.766,3.307,3.728-.361.6-3.968,5.712-4.569,2.164-.3-1.864-2.886-.9-2.525,1.5.661,4.569-5.712,6.914-4.87,1.984a20.63,20.63,0,0,0-1.022-3.487c-.9-1.2.842-3.186.3-3.968-.18-.24-5.832,2.645-7.515,1.744-2.044-1.142-3.367,3.307-3.247,3.848.481,3.367-4.209,3.006-3.547,5.291,1.2,3.788,6.613,3.006,4.148,7.515-.721,1.263,2.4.962-.421,2.946-4.028,2.826-2.465.421-2.766-1.744-.12-.361-.481-4.689-1.924-4.209-.661.18-.782,3.307-1.142,3.968-2.886,5.351,1.323,5.411-1.142,10.04" transform="translate(0 -0.707)" fill="#0062fe" fill-rule="evenodd"/><path d="M11.506,21.791c2.224,1.5,2.4-1.5,2.224-2.886-.24-1.142.541-1.864,1.623-2.585.721-.541,1.683-.06.9-1.082-.24-.421,2.164.3,2.164.24a3.851,3.851,0,0,1,2.044.782c.9,1.383,2.4-.842,2.886,2.164.24,1.263-1.383,1.5-.361,3.006.9,1.263-1.022.06-1.383-.421-.842-1.263-.3-2.946-2.465-1.383-2.044,1.443-1.142.9-.842,2.525.18.962-.3,1.5-1.2,2.164-.721.541-1.443.721-2.164,1.263-1.022.721-1.864,1.8-2.946.361a8,8,0,0,1-1.142-2.1c-.3-.962.782-1.864.661-2.044" transform="translate(-1.78 -2.492)" fill="#0062fe" fill-rule="evenodd"/><path d="M36.631,14.562a9.6,9.6,0,0,0,3.427,3.066c1.984,1.142,5.591-1.2,7.395-.24,3.547,1.924-3.307,3.848.721,5.952,2.525,1.443,5.832-7.635,1.142-10.1-1.623-.962-1.263-2.886-1.924-3.788a11.193,11.193,0,0,0-7.154-4.569c-3.547-.6-3.607,2.826-.421,2.766.782-.06,4.449,1.263,3.607,2.766-.361.6-1.383,2.1-.962,2.705.962,1.323-.962,3.186-1.563-.661-.541-3.247-4.148,1.924-4.269,2.1" transform="translate(-6.043 -0.794)" fill="#0062fe" fill-rule="evenodd"/><path d="M33.391,4.874c-.782.18-1.383.24-1.924-.481-.3-.481-1.5-.24-1.864-.18-.3.06-.721-.481-.541-.782a2.181,2.181,0,0,1,1.984-1.142,9.32,9.32,0,0,0,2.1.421s.6-.421.661-.481c.24-.18,1.443,1.2,1.383,1.443-.06.421-.361.6-.721.9-.481.361-.962,0-1.082.3" transform="translate(-4.788 -0.365)" fill="#0062fe" fill-rule="evenodd"/><path d="M18.453,53.837c-.541-.3-1.323-.721-1.864-1.022-2.164-1.022.361-1.263,1.022-1.924.12-.12.541-.661.721-.661.24,0,.661-.18.782-.12.12,0,1.623.962,1.623.962a3.662,3.662,0,0,1,.842.842c.18.541.06,1.984-.842,1.984-.3,0-2.1.24-2.285-.06" transform="translate(-2.595 -8.265)" fill="#0062fe" fill-rule="evenodd"/></g></g></svg>