<svg id="Group_2152" data-name="Group 2152" xmlns="http://www.w3.org/2000/svg" width="78.37" height="50.473" viewBox="0 0 78.37 50.473">
  <path id="Path_4638" data-name="Path 4638" d="M924.38,102.323q-.168-4.225-.329-8.451l-.244-6.069q-.163-4.065-.325-8.128c-.081-1.987-.157-3.974-.244-5.958a8.955,8.955,0,0,0-.122-1.348,1.292,1.292,0,0,0-1.7-1.088,4.084,4.084,0,0,0-.786.286q-6.176,2.874-12.348,5.759a7.152,7.152,0,0,0-2.64,1.989,5.569,5.569,0,0,0-1,1.967c-.143.5-.145.474-.65.425a23.1,23.1,0,0,1-6.911-2.039c-2.024-.887-4.007-1.869-6-2.838a10.544,10.544,0,0,0-5.733-1.2A13.368,13.368,0,0,0,879.017,78c-.267.182-.531.374-.789.574A6.963,6.963,0,0,1,874.963,80a27.067,27.067,0,0,0-4.518,1.218c-1.241.412-2.493.8-3.745,1.176a8.369,8.369,0,0,1-1.047.181c-.006-.448.009-.853-.019-1.255a5.507,5.507,0,0,0-2.862-4.494,16.419,16.419,0,0,0-2.882-1.239q-5.67-2.123-11.346-4.228a3.532,3.532,0,0,0-1-.229,1.214,1.214,0,0,0-1.343,1c-.032.123-.062.243-.095.365l.017,1.3c.03.576.065,1.153.091,1.729q.19,4.577.373,9.154c.071,1.788.131,3.576.2,5.364q.143,3.618.3,7.233.138,3.451.273,6.907a5.688,5.688,0,0,0,.058.646,1.343,1.343,0,0,0,1.363,1.264c1.532.1,3.067.222,4.6.206a5.524,5.524,0,0,0,4.392-2.175c.343-.425.39-.442.921-.272a12.614,12.614,0,0,1,3.864,2.151q6.008,4.642,12,9.314,3.1,2.4,6.19,4.807a6.661,6.661,0,0,0,8.031.237,1.242,1.242,0,0,0,.177-.124.7.7,0,0,1,.933-.046,5.1,5.1,0,0,0,6.291-.875,5.389,5.389,0,0,0,1.264-2.217c.024-.075.05-.152.069-.209a8,8,0,0,0,3.611.1,4.654,4.654,0,0,0,3.495-3.332c.054-.154.091-.313.145-.466a.882.882,0,0,1,.61-.587,10.469,10.469,0,0,0,1.824-.739,4.719,4.719,0,0,0,2.34-3.763,2.87,2.87,0,0,1,.065-.564,1.528,1.528,0,0,1,.34-.651c.74-.677,1.5-1.329,2.278-1.966a1.289,1.289,0,0,1,1.894.092,5.74,5.74,0,0,0,4.343,1.767,26.948,26.948,0,0,0,2.716-.307c.619-.078,1.235-.179,1.851-.271a1.4,1.4,0,0,0,1.423-1.3.459.459,0,0,1,.03-.077l-.011-.814c-.03-.567-.067-1.134-.09-1.7m-68.225-1.181a3.2,3.2,0,0,1-2.282,2.226,5.8,5.8,0,0,1-1.967.035c-.387-.033-.776-.048-1.163-.05-.45,0-.583-.119-.6-.632-.064-1.589-.115-3.178-.176-4.767-.094-2.3-.195-4.6-.289-6.905-.068-1.724-.127-3.449-.2-5.174-.093-2.256-.2-4.514-.287-6.769-.054-1.372-.1-2.744-.15-4.116,0-.09,0-.181,0-.33.672.231,1.3.428,1.913.66q4.6,1.72,9.2,3.465a8.233,8.233,0,0,1,1.352.679,2.466,2.466,0,0,1,1.2,2.811,23.669,23.669,0,0,1-.851,2.82q-2.834,8.03-5.7,16.049M906.6,108.3a2.251,2.251,0,0,1-3.6,1.038c-.857-.692-1.652-1.461-2.463-2.208q-5.073-4.678-10.141-9.364c-.6-.551-1.184-1.119-1.831-1.611a1.371,1.371,0,0,0-2.2.9,1.251,1.251,0,0,0,.359,1.146c.477.491.976.964,1.48,1.43q3.823,3.538,7.65,7.065,2.463,2.274,4.927,4.539c.293.268.622.5.924.755a.565.565,0,0,1,.2.766,2.306,2.306,0,0,1-3.847,1c-1.648-1.48-3.267-2.992-4.9-4.49q-4.763-4.377-9.526-8.752a2.054,2.054,0,0,0-1.388-.653,1.291,1.291,0,0,0-1.234,1.746,2.739,2.739,0,0,0,.65.948c1.541,1.461,3.1,2.9,4.664,4.341q2.658,2.458,5.319,4.914c.717.662,1.44,1.317,2.148,1.991a2.476,2.476,0,0,1,.895,2.519,2.3,2.3,0,0,1-3.618,1.222c-.848-.644-1.635-1.369-2.447-2.062q-4.961-4.235-9.923-8.469a3.293,3.293,0,0,0-.766-.5,1.246,1.246,0,0,0-1.486.307,1.3,1.3,0,0,0-.271,1.546,2.658,2.658,0,0,0,.621.772q3.936,3.367,7.892,6.714.991.842,1.963,1.711a5.22,5.22,0,0,1,.466.543,3.433,3.433,0,0,1-1.449.548,3.906,3.906,0,0,1-3.231-.832q-7.524-5.837-15.036-11.687c-1.385-1.074-2.787-2.129-4.21-3.153a19.043,19.043,0,0,0-3.374-1.724c-.492-.224-.5-.246-.32-.751q2.463-6.868,4.931-13.739c.1-.282.21-.559.326-.832a.67.67,0,0,1,.65-.463,16.2,16.2,0,0,0,4.644-1.113c.974-.359,1.953-.707,2.93-1.057a1.909,1.909,0,0,1,.224-.044c-.218.306-.413.575-.6.849a11.188,11.188,0,0,0-1.924,4.089,6.452,6.452,0,0,0,.779,5.055,5.019,5.019,0,0,0,6.12,1.936,4.848,4.848,0,0,0,1.97-1.528,7.234,7.234,0,0,1,3.939-2.59c.935-.268,1.9-.432,2.85-.653a1.091,1.091,0,0,1,.988.324q1.774,1.513,3.543,3.033,5.906,5.088,11.809,10.185a28.781,28.781,0,0,1,3.465,3.233,2.787,2.787,0,0,0,.319.369.605.605,0,0,1,.143.735m5.305-6.326c-.192.055-.383.111-.568.182a3.71,3.71,0,0,0-1.795,1.424,3.343,3.343,0,0,1-1.478,1.06c-.088.04-.277-.057-.377-.14-.517-.425-1.02-.864-1.528-1.3q-5.5-4.713-10.99-9.431-3.171-2.74-6.3-5.523a2.845,2.845,0,0,0-2.9-.713c-.811.244-1.648.4-2.478.583a10.326,10.326,0,0,0-3.8,1.708c-.354.251-.729.476-1.074.736a6.285,6.285,0,0,0-.61.571c-.342.335-.665.692-1.02,1.011a2,2,0,0,1-3.129-.442,3.477,3.477,0,0,1-.6-1.765c.077-.351.124-.712.233-1.052a13.3,13.3,0,0,1,2.942-4.942,17.336,17.336,0,0,1,6.869-4.881,11.162,11.162,0,0,1,2.617-.666,4.607,4.607,0,0,1,1.962.288c1.248.443,2.46.992,3.679,1.514q3.957,1.695,7.911,3.4a13.515,13.515,0,0,0,3.283.793c.48.077.961.164,1.439.259a.839.839,0,0,1,.638.523q3.6,8.107,7.217,16.207c.026.056.042.119.07.175.112.234.014.353-.212.417m9.106,1.641c-.752.094-1.5.217-2.258.272a3.074,3.074,0,0,1-3.331-2.02q-3.172-7.421-6.333-14.844c-.483-1.129-.989-2.246-1.47-3.377a3.777,3.777,0,0,1-.3-.978,1.743,1.743,0,0,1,.682-1.572,11.686,11.686,0,0,1,2.826-1.747q4.531-2.129,9.071-4.255c.135-.065.281-.11.488-.189.031.617.059,1.175.082,1.733q.154,3.641.3,7.285c.07,1.707.129,3.413.2,5.12.094,2.3.194,4.6.289,6.9.07,1.7.129,3.4.2,5.093.024.649.074,1.3.1,1.948.016.472-.078.569-.543.627" transform="translate(-846.111 -71.126)" fill="#fff"/>
</svg>
