<svg id="Group_2151" data-name="Group 2151" xmlns="http://www.w3.org/2000/svg" width="66.623" height="69.756" viewBox="0 0 66.623 69.756">
  <path id="Path_4633" data-name="Path 4633" d="M489.843,77.525c-.14-2.829-.733-5.484-2.343-6.64,0,0,0,0,0,0a6.231,6.231,0,0,0-1.841-.833,2.1,2.1,0,0,1-.526-.2h0a5.89,5.89,0,0,0-3.852.665s0,0-.007,0a1.76,1.76,0,0,1-.157.094.23.23,0,0,0-.028.017l-.009.007a.009.009,0,0,0-.007,0,8.7,8.7,0,0,0-4.171,5.375,45.781,45.781,0,0,0-1.1,4.888,15.959,15.959,0,0,1-.419,1.721,1.519,1.519,0,0,1-.179.41.5.5,0,0,1-.183.142l.137-.552-.894,2.7.257-.135a1.184,1.184,0,0,0-.059.135.243.243,0,0,0-.017.065c-.31,1.64-1.954,3.335-3.558,3.261-2.519-.118-5.028-.534-7.532-.89a1.08,1.08,0,0,1-.615-.807,40.959,40.959,0,0,1-.177-6.09c.089-1.043.938-2.018,1.444-3.023.153.041.31.079.462.12l.011,0c0,.624.026,1.252.033,1.878l-.022-17.555c0,.007,0,.015,0,.022a1.834,1.834,0,0,1-1.08,1.605c-1.547.875-3.01,1.9-4.476,2.912-4.2,2.9-6.821,6.734-7.222,11.976-.218,2.86-.674,5.7-1.1,8.546a9.928,9.928,0,0,0,.949,6.038c.615,1.237,1.278,2.452,1.837,3.713,3.183,7.179,5.152,14.744,7.009,22.339.229.936.565,1.217,1.514,1.182,6.321-.225,12.645-.425,18.971-.543,1.191-.022,1.518-.462,1.677-1.536a52.937,52.937,0,0,1,2.9-11.613,43.1,43.1,0,0,0,1.5-4.893,85.305,85.305,0,0,0,2.373-16.7v-.011c.013-.181.022-.364.033-.545a1.655,1.655,0,0,1,.236-.879c.037-.4.076-.827.109-1.272.05-.637.094-1.315.122-2.011-.024,0,0-3.082,0-3.082m-3.451,7.79a77.31,77.31,0,0,1-1.906,14.615c-.585,2.358-1.442,4.646-2.085,6.989-.846,3.08-1.632,6.175-2.384,9.279-.166.685-.414.96-1.137.977-4.978.131-9.958.273-14.933.482-.927.039-1.04-.443-1.241-1.112-1.73-5.776-3.425-11.563-5.277-17.3a36.182,36.182,0,0,0-2.587-5.759,9.984,9.984,0,0,1-1.235-6.8c.6-3.248.951-6.544,1.418-9.818a8.293,8.293,0,0,1,2.757-5.2c2.011-1.76,4.153-3.368,6.241-5.041l.436.275c0,2.092.017,4.184-.024,6.274-.007.264-.312.548-.524.781C463.42,74.5,462.9,75,462.4,75.531c-1.965,2.081-3.274,4.328-2.759,7.421a37.471,37.471,0,0,1,.166,5.988c0,.6.177.99.783,1.1,2.956.55,5.894,1.322,8.878,1.579a7.249,7.249,0,0,0,7.829-5.178q.193-.56.353-1.13c.255-.888.46-1.791.659-2.7.244-1.117.478-2.236.772-3.337a15.612,15.612,0,0,1,1.455-4.066,6.021,6.021,0,0,1,2.022-1.937,5.653,5.653,0,0,1,.624-.323,2.466,2.466,0,0,1,3.464,2.184,17.714,17.714,0,0,1,.057,2.722q-.052,1.3-.1,2.591c-.028.722-.055,1.444-.087,2.166-.035.9-.076,1.8-.122,2.7" transform="translate(-450.497 -50.855)" fill="#fff"/>
  <path id="Path_4634" data-name="Path 4634" d="M534.572,167.9" transform="translate(-516.232 -133.436)" fill="#fff"/>
  <path id="Path_4635" data-name="Path 4635" d="M514.574,62.275c0,.007,0,.015,0,.022V77.154h-.02v.8l.011,0c0,.624.026,1.252.033,1.878ZM536.6,82.618c-.035.9-.076,1.8-.122,2.7h2.956c.013-.181.022-.364.033-.545a1.655,1.655,0,0,1,.236-.879c.037-.4.076-.827.109-1.272Zm-11.356,0-.894,2.7h3.385c.255-.888.46-1.791.659-2.7Z" transform="translate(-500.579 -50.855)" fill="#fff"/>
  <path id="Path_4636" data-name="Path 4636" d="M567.142,14.14a4.027,4.027,0,0,0-4.391-4.214q-21.873-.007-43.746,0a4.141,4.141,0,0,0-4.48,4.485c-.013,2.223-.024,4.441-.009,6.662h.022v.292c0-.007,0-.015,0-.022l.022,17.555c-.007-.626-.033-1.254-.033-1.878l-.011,0q0,1.237,0,2.471c0,3.213,1.322,4.709,4.365,4.893h5.427l.894-2.7h-5.3a3.456,3.456,0,0,1-1.994-.4,2.168,2.168,0,0,1-.685-1.92q0-7.028,0-14.059c0-.353.048-.707.079-1.117,0,0,38.714-.059,46.512-.057.142,0,.286.037.62.081V26.45c0,4.432.011,8.865,0,13.3,0,1.509-.386,1.9-1.859,1.906q-10.392.026-20.786.033h-2.018c-.033.445-.072.873-.109,1.272a1.655,1.655,0,0,0-.236.879c-.011.181-.02.364-.033.545h23.822a3.947,3.947,0,0,0,3.915-3.85q.062-13.2.009-26.392M561.865,17.3q-11.3,0-22.6-.015v.017c-19.966-.007-20.539-.011-21.111.011-.742.028-.971-.262-.927-.951.037-.58,0-1.163.011-1.745.024-1.527.43-1.952,1.95-1.957q7.2-.016,14.4,0h7.31v.007q10.745,0,21.493,0c1.662,0,2.029.386,2.037,2.072.013,2.557.013,2.563-2.565,2.563" transform="translate(-500.545 -9.923)" fill="#fff"/>
  <path id="Path_4637" data-name="Path 4637" d="M676.808,91.592c-.009-1.8-.8-2.6-2.6-2.611q-4.96-.02-9.925,0a2.261,2.261,0,0,0-2.546,2.565q-.023,3.488,0,6.978a2.231,2.231,0,0,0,2.5,2.485c1.673.026,3.346.007,5.017.007v-.007c1.673,0,3.344.015,5.017,0,1.736-.017,2.517-.8,2.528-2.548q.023-3.436,0-6.869m-2.646,6.81h-9.674V91.454h9.674Z" transform="translate(-615.654 -71.728)" fill="#fff"/>
</svg>
