<svg xmlns="http://www.w3.org/2000/svg" width="87.575" height="72.295" viewBox="0 0 87.575 72.295"><path d="M60.735,783.022a1.205,1.205,0,0,1-1.531-.9c-.815-3.41-3.27-5.343-6.167-6.814a26.25,26.25,0,0,0-4.421-1.7c-2.973-.882-5.5-2.281-6.936-5.2-.1-.2-.417-.3-.643-.428-.073-.043-.183-.015-.275-.034-1.06-.234-2.169-.774-3.167-.617-.954.149-1.761,1.084-2.687,1.572a12.548,12.548,0,0,1-16.6-4.632,1.027,1.027,0,0,0-1.21-.544,17.95,17.95,0,0,1-7.469-.69C3.963,761.2,1.028,757.074.2,751.333a15.262,15.262,0,0,1,1.6-9.858,1.311,1.311,0,0,0,.052-.862,7.421,7.421,0,0,1,4.382-9.03,1.44,1.44,0,0,0,.681-.854c1.451-5.452,5.1-8.293,10.78-8.256a3.937,3.937,0,0,0,2.763-.95,13.954,13.954,0,0,1,9.837-3.047,45.74,45.74,0,0,1,6.151.942,2.127,2.127,0,0,0,1.654-.2,6.979,6.979,0,0,1,5.2-.86c.95.2,1.412.783,1.273,1.623-.133.809-.787,1.185-1.77,1.017a4.721,4.721,0,0,0-5.506,3.219c-.357,1.03-.942,1.415-1.78,1.172-.78-.226-1.084-.979-.776-2,.142-.473.342-.927.548-1.471a18.547,18.547,0,0,0-6.738-.72c-3.844.376-6.958,1.959-8.975,5.388a1.219,1.219,0,0,1-1.52.6,1.261,1.261,0,0,1-.939-1.34c.006-.181,0-.363,0-.538-3.24-.521-6.814,2.238-7.4,5.745.222.062.45.138.684.185a7.2,7.2,0,0,1,3.6,1.842,1.4,1.4,0,0,1,.217,1.995,1.332,1.332,0,0,1-1.989.032A4.713,4.713,0,0,0,5.4,741.57a3.471,3.471,0,0,1,.5.667,1.288,1.288,0,0,1-1.219,1.868,7.554,7.554,0,0,1-1.112-.226c-1.4,4.53-1.3,8.9,1.535,12.819,2.941,4.075,7.306,4.634,11.924,4.359a27.617,27.617,0,0,1,.368-3.657,25.585,25.585,0,0,1,1.238-3.322c-.7-.436-1.454-.959-2.266-1.38a1.469,1.469,0,0,0-.952.073,7.287,7.287,0,0,1-7.089-1.382,1.429,1.429,0,0,1-.471-2.038,1.33,1.33,0,0,1,2.105-.12,4.442,4.442,0,0,0,4.328,1.023c-.2-.942-.424-1.832-.57-2.735a3.413,3.413,0,0,1,.049-1.292,1.2,1.2,0,0,1,1.38-.983,1.239,1.239,0,0,1,1.213,1.193c.058.462.011.94.1,1.391a4.7,4.7,0,0,0,9.288-.32c.209-1.43.993-1.825,2.3-1.2,4.793,2.3,9.452,1.574,14.156-.621a8.805,8.805,0,0,1-1.6-4.788,5.148,5.148,0,0,1,.039-1.019,1.233,1.233,0,0,1,1.439-1.142,1.265,1.265,0,0,1,1.187,1.322,13.146,13.146,0,0,0,.213,2.036,5.061,5.061,0,0,0,4.515,3.866c.43.065.864.1,1.294.17a1.269,1.269,0,0,1,1.247,1.436,1.238,1.238,0,0,1-1.482,1.181c-1.1-.088-2.195-.3-3.533-.486.4.871.755,1.666,1.142,2.445.136.275.372.5.535.761a1.268,1.268,0,0,1-.273,1.828,1.17,1.17,0,0,1-1.813-.2c-.755-1.2-1.357-2.488-2-3.752a5.922,5.922,0,0,1-.292-.944c-4.8,2.139-9.645,2.759-14.578.978a26.567,26.567,0,0,1-1.492,2.328,7.443,7.443,0,0,1-3.872,2.46,2.922,2.922,0,0,0-1.357.856,7.211,7.211,0,0,0,1.428,10.6,10.152,10.152,0,0,0,12.81-.565,2.133,2.133,0,0,1,2.423-.506,20.993,20.993,0,0,0,11.318.422c.181-.039.359-.1.544-.125a1.3,1.3,0,0,1,1.581.968,1.251,1.251,0,0,1-1.006,1.614c-1.456.3-2.933.5-4.4.729-.391.06-.793.047-1.436.078.357.4.535.752.817.9a25.256,25.256,0,0,0,3.913,1.864c3.642,1.144,7.091,2.619,9.646,5.549a23.005,23.005,0,0,1,2.387,3.952,2.81,2.81,0,0,1,.234,1.086,1.227,1.227,0,0,1-1.028,1.441" transform="translate(-0.001 -710.766)" fill="#fff"/><path d="M293.77,760.74a1.193,1.193,0,0,0-.224.153,13.334,13.334,0,0,0,.144,2.4,7.416,7.416,0,0,0,.939,2.079,1.472,1.472,0,0,1-.135,2.008,1.392,1.392,0,0,1-1.918-.249,5.677,5.677,0,0,1-1.595-3.965,4.179,4.179,0,0,0-.075-1.107,1.142,1.142,0,0,0-1.511-.963,4.4,4.4,0,0,1-1.557.028c-1.125-.161-1.484.079-1.542,1.219a4.406,4.406,0,0,1-2.395,3.846,1.393,1.393,0,0,1-2.045-.337c-.445-.727-.207-1.458.707-2a2.262,2.262,0,0,0,1.06-1.731,18.179,18.179,0,0,1,.989-2.64,2.888,2.888,0,0,0,.193-.976,17.155,17.155,0,0,1-.069-2.2,1.242,1.242,0,0,1,1.481-1.1,1.29,1.29,0,0,1,1.137,1.542c-.151.838.069,1.456.871,1.707.839.262,1.344-.232,1.645-.981a1.1,1.1,0,0,1,1.391-.791c.469.174.808.716,1.178,1.12.086.094.065.286.1.473a2.739,2.739,0,0,0,1.97-2.2,2.674,2.674,0,0,0-.916-2.688,1.649,1.649,0,0,0-1.086-.279c-1.038.058-1.681-.241-1.8-1.036-.129-.886.34-1.367,1.182-1.619.249-.073.406-.453.606-.692-.245-.193-.467-.507-.74-.561-1.363-.275-1.563-.5-1.5-1.929a1.813,1.813,0,0,0-1.341-1.978,1.786,1.786,0,0,0-2.062,1.043c-.531,1.088-1.114,1.436-1.894,1.131-.727-.286-.929-.909-.671-2.047a2.539,2.539,0,0,0-.058-.46c-.523.208-1.125.273-1.417.608a3.008,3.008,0,0,0-.486,1.5c-.036.232.217.5.318.759a1.337,1.337,0,1,1-2.333,1.3,4.266,4.266,0,0,1-.294-4.346c.4-.888-.017-1.669-1.023-1.619a6.481,6.481,0,0,0-2.127.576c-1.537.651-3.109,1.34-4.756.709a9.78,9.78,0,0,1-2.827-1.845,1.239,1.239,0,0,1,.064-1.965,1.358,1.358,0,0,1,1.974.256,2.761,2.761,0,0,0,3.447.783c.955-.365,1.894-.789,2.871-1.079a4.28,4.28,0,0,1,4.558,1.354c.267.279.772.327,1.168.477.026.011.064-.011.093-.008a33.234,33.234,0,0,0,5.592.243,4.074,4.074,0,0,1,3.806,3.3,1.907,1.907,0,0,0,.7.972,3.43,3.43,0,0,1,1.61,3.507,1.157,1.157,0,0,0,.247.88,5.67,5.67,0,0,1-1.651,9.42" transform="translate(-222.543 -729.083)" fill="#fff"/><path d="M335.723,922.984a11.2,11.2,0,0,1-3.386,5.881,4.305,4.305,0,0,0-1.006,1.49,13.6,13.6,0,0,1-5.814,7.05c-.131.075-.251.17-.443.3.351.426.684.821,1,1.222a15.373,15.373,0,0,1,3.554,9.6c.015,1.1-.527,1.759-1.368,1.742-.81-.019-1.327-.647-1.339-1.694a12.986,12.986,0,0,0-4.15-9.271,1.331,1.331,0,0,0-1.484-.456,4.069,4.069,0,0,1-1.2.118,1.316,1.316,0,0,1-.278-2.612c.669-.134,1.353-.2,2.013-.366a9.478,9.478,0,0,0,5.58-3.939,3.725,3.725,0,0,0,.277-.48c.022-.045-.006-.114-.017-.237a10.556,10.556,0,0,1-5.422-.084,2.117,2.117,0,0,1-1.208-.867,1.427,1.427,0,0,1,.189-1.339,2.335,2.335,0,0,1,1.482-.424,22.916,22.916,0,0,0,3.859.112,7.9,7.9,0,0,0,6.493-6.168c.017-.06.019-.123.034-.183.247-.948.881-1.413,1.664-1.225a1.392,1.392,0,0,1,.966,1.827" transform="translate(-263.838 -878.757)" fill="#fff"/><path d="M136.791,788.5a6.223,6.223,0,0,1-2.726,4.569c-.249.178-.5.346-.542.372a30.208,30.208,0,0,1,.338,3.9,1.224,1.224,0,0,1-1.955,1.006,2.19,2.19,0,0,1-.639-1.144,8.193,8.193,0,0,1-.047-1.2,1.87,1.87,0,0,0-1.817-1.907c-.6-.12-1.189-.338-1.862-.535-.183.234-.385.5-.6.759a6.3,6.3,0,0,1-5.117,2.421c-.968,0-1.568-.527-1.585-1.333a1.334,1.334,0,0,1,1.531-1.368,3.69,3.69,0,0,0,3.24-5.715,1.306,1.306,0,0,1,.387-2.008,1.258,1.258,0,0,1,1.869.617c.462,1.026.669,2.165,1.055,3.229a1.821,1.821,0,0,0,.735,1.008,3.62,3.62,0,0,0,4.99-2.567c.039-.183.058-.37.1-.55a1.339,1.339,0,1,1,2.638.449" transform="translate(-99.539 -766.997)" fill="#fff"/><path d="M170.345,933.978a1.286,1.286,0,0,1-1.548-.882,5.108,5.108,0,0,0-.52-1.081c-.493-.632-1.015-.987-1.86-.351a5.115,5.115,0,0,1-3.535.909,1.314,1.314,0,0,1-1.367-1.339,1.3,1.3,0,0,1,1.3-1.32c2.556-.265,3.1-.727,3.829-3.251a1.3,1.3,0,0,1,1.511-1.069c.748.086,1.18.718,1.122,1.776-.866,1.208.071,1.957,1,2.868a5.121,5.121,0,0,1,1.075,2.213,1.18,1.18,0,0,1-1,1.527" transform="translate(-133.704 -882.453)" fill="#fff"/><path d="M300.053,792.649a2.94,2.94,0,0,1-4.115,2.1,3.851,3.851,0,0,1-1.782-1.51,3.829,3.829,0,0,0-3.124-2.045c-.434-.05-.867-.084-1.3-.131-.894-.1-1.46-.66-1.421-1.408a1.375,1.375,0,0,1,1.554-1.249h.123c2.881.116,5.119.911,6.44,3.423.35.667.72.622,1.094-.06a1.344,1.344,0,0,1,2.53.882" transform="translate(-238.67 -768.894)" fill="#fff"/><path d="M448.754,705.063c-1.264,1.361-2.6,2.658-3.928,3.958a3.137,3.137,0,0,1-.912.364c-.318-.23-.828-.417-.983-.763a1.57,1.57,0,0,1,.021-1.359c1.266-1.4,2.612-2.735,3.988-4.029a1.142,1.142,0,0,1,1.677.146,1.16,1.16,0,0,1,.138,1.682" transform="translate(-366.548 -698.138)" fill="#fff"/><path d="M475.417,792.63A1.305,1.305,0,0,1,474,793.911c-.34,0-.682-.034-1.023-.052a.023.023,0,0,0,0,.011c-1.023-.073-2.045-.131-3.066-.221a1.4,1.4,0,0,1-1.393-1.447,1.377,1.377,0,0,1,1.563-1.252c1.363.084,2.724.206,4.087.321a1.279,1.279,0,0,1,1.253,1.359" transform="translate(-387.844 -770.999)" fill="#fff"/><path d="M377.269,681.96a1.287,1.287,0,0,1-1.466-1.226c-.114-1.049-.163-2.105-.239-3.157h.015a9.7,9.7,0,0,1-.066-1.208,1.246,1.246,0,0,1,1.241-1.268,1.213,1.213,0,0,1,1.38,1.109c.164,1.449.284,2.905.342,4.361a1.243,1.243,0,0,1-1.208,1.389" transform="translate(-310.853 -675.099)" fill="#fff"/></svg>