<svg xmlns="http://www.w3.org/2000/svg" width="53.706" height="87.937" viewBox="0 0 53.706 87.937"><path d="M1479.879,1452.732a.456.456,0,0,0,.122.017l2.673,1.959.013.009a1.637,1.637,0,0,0,.236.144,3.706,3.706,0,0,1,1.03.822l.008.009a2.393,2.393,0,0,1,.63,1.762l-.1,1.612a12.878,12.878,0,0,1-1.113,1.435,1.049,1.049,0,0,1-1.557-.081,1.092,1.092,0,0,1,.09-1.62,1.1,1.1,0,0,0,.352-1.583c-.406-.623-1-.573-1.6-.247a.934.934,0,0,1-1.333-.235,3.2,3.2,0,0,1-.164-1.365c-.006-.107.111-.222.189-.364a2.321,2.321,0,0,0-2.472.373,2.262,2.262,0,0,0-.853,2.248,1.4,1.4,0,0,0,.559.767c.708.523.965,1.065.612,1.645a1.161,1.161,0,0,1-1.643.419c-.2-.085-.508.077-.769.125.057.258.032.583.18.765.742.914.751,1.168-.061,2.068a1.536,1.536,0,0,0-.193,2.014,1.51,1.51,0,0,0,1.907.431c.934-.423,1.5-.336,1.846.284.321.579.116,1.094-.666,1.7a2.147,2.147,0,0,0-.21.331c.453.148.88.429,1.252.368a2.556,2.556,0,0,0,1.123-.713c.149-.132.128-.443.2-.667a1.131,1.131,0,1,1,2.226.407,3.611,3.611,0,0,1-2.153,2.994h0a4.707,4.707,0,0,1-1.343.317s0,0,0,0a4.292,4.292,0,0,1-2.174-.633,28.04,28.04,0,0,0-3.517-3.175,3.448,3.448,0,0,1-.7-4.206,1.608,1.608,0,0,0,.063-1.014,2.9,2.9,0,0,1,.841-3.156.979.979,0,0,0,.315-.708,4.8,4.8,0,0,1,6.158-5.254" transform="translate(-1458.858 -1432.956)" fill="#fff"/><path d="M1396.464,1481.446c1.848.18,3.688.454,5.529.726.247.037.466.272.843.5.01.392.17.911-.011,1.244-.2.372-.74.836-1.094.807-1.881-.158-3.758-.42-5.621-.73a1.142,1.142,0,0,1-.9-1.422,1.161,1.161,0,0,1,1.255-1.13" transform="translate(-1395.192 -1456.899)" fill="#fff"/><path d="M1448.879,1403.642a1.305,1.305,0,0,1,1.879.353c.209.268.387.563.578.845a.026.026,0,0,0,.01-.005c.562.858,1.135,1.706,1.683,2.573a1.4,1.4,0,0,1-.307,1.985,1.377,1.377,0,0,1-1.943-.484c-.759-1.135-1.487-2.291-2.221-3.446a1.279,1.279,0,0,1,.322-1.82" transform="translate(-1439.163 -1392.277)" fill="#fff"/><path d="M1431.4,1552.393a1.286,1.286,0,0,1-.087,1.909c-.765.726-1.576,1.405-2.366,2.1l-.009-.012a9.735,9.735,0,0,1-.921.784,1.245,1.245,0,0,1-1.76-.219,1.213,1.213,0,0,1,.046-1.769c1.053-1.009,2.139-1.987,3.262-2.915a1.243,1.243,0,0,1,1.837.119" transform="translate(-1420.608 -1515.248)" fill="#fff"/><path d="M1553.557,1349.238a3.293,3.293,0,0,0-4.136.024c-.472.344-.928.661-1.6.329.076-.2.138-.384.214-.561,1-2.321.561-3.571-1.674-4.8q-4.845-2.663-9.692-5.319h-1.546a3.531,3.531,0,0,0-2.142,1.968c-1.491,4.022-3.008,8.036-4.473,12.07a2.851,2.851,0,0,0,1.345,3.609,1.019,1.019,0,0,1,.652,1.212,9.564,9.564,0,0,1-.425,1.557.849.849,0,0,1-1.047.6,2.908,2.908,0,0,0-3.22,2.448c-.222,1.123-.372,2.259-.553,3.389-.484,3.023-.976,6.047-1.446,9.072a3.057,3.057,0,0,0,2.2,3.669c.248.09.594.384.6.585a15.778,15.778,0,0,1-.2,2.514c-.033.2-.351.437-.587.523a3.072,3.072,0,0,0-2.378,3.487q.326,6.134.677,12.264a3,3,0,0,0,2.676,2.986,1.156,1.156,0,0,1,1.092.883,6.43,6.43,0,0,1,.308,1.415,1.544,1.544,0,0,1-.914,1.724,2.779,2.779,0,0,0-1.4,3.437q2.015,6.2,4.144,12.366a2.944,2.944,0,0,0,3.38,1.889c.923-.164,1.319.017,1.546.928a4.11,4.11,0,0,1-.031,1.586,1.41,1.41,0,0,0,.813,1.689,1.364,1.364,0,0,0,1.738-.857,7.283,7.283,0,0,0,.26-2.6,11.273,11.273,0,0,0-.857-2.416c.647-.322,1.334-.67,2.026-1.007s1.367-.654,2.068-.988c.188.5.315.906.494,1.291a3.978,3.978,0,0,0,2.994,2.328,1.441,1.441,0,0,0,1.8-1.045c.177-.782-.281-1.412-1.209-1.661-.11-.029-.224-.052-.331-.089-.728-.264-.878-.894-1.037-1.553-.155-.641.257-.825.677-1.1a3,3,0,0,0,1.357-3.117c-.066-.472-.167-.938-.3-1.7a17.713,17.713,0,0,1,1.87.751c2.162,1.183,4.285.386,4.921-1.877a3.206,3.206,0,0,0-1.338-3.531c-.222-.162-.446-.319-.68-.485a3.235,3.235,0,0,0,.358-3.232,3.7,3.7,0,0,0-3.738-2.066,3.212,3.212,0,0,0-2.923,2.708c-.145.577-.367,1.054-1.047,1.2-.058-.179-.107-.31-.143-.444-.62-2.316-1.329-2.874-3.721-2.949a.9.9,0,0,1-.542-.165c-.849-.746-.413-3.213.622-3.661a3.033,3.033,0,0,0,1.959-2.51c.06-.48.119-.961.212-1.722.653.5,1.212.852,1.687,1.3a3.167,3.167,0,0,0,4.415.3,3.243,3.243,0,0,0,.329-4.621c-.155-.193-.32-.377-.492-.582a3.275,3.275,0,0,0,1.262-2.819,3.615,3.615,0,0,0-2.949-3.168,3.294,3.294,0,0,0-3.679,1.736c-.3.508-.618.95-1.374.89,0-.453.017-.88,0-1.305a2.852,2.852,0,0,0-2.213-2.824c-1.043-.174-1.245-.8-1.212-1.6a10.349,10.349,0,0,1,.36-1.92.979.979,0,0,1,.945-.806,2.94,2.94,0,0,0,2.483-2.207c.136-.429.257-.863.474-1.591.587.7,1.057,1.209,1.464,1.765a3.109,3.109,0,0,0,4.2,1.116,3.24,3.24,0,0,0,1.3-4.511c-.115-.222-.245-.437-.368-.656l.25.109a11.218,11.218,0,0,0,1.439-2.407,3.528,3.528,0,0,0-6.051-3.123,7.631,7.631,0,0,1-1.293.885l-.22-.222c.079-.468.171-.937.236-1.406a2.7,2.7,0,0,0-1.262-2.889,1.585,1.585,0,0,1-.8-1.946,8.06,8.06,0,0,1,.765-1.794,1.111,1.111,0,0,1,1.178-.613,2.849,2.849,0,0,0,2.676-1.553c.253-.429.487-.87.852-1.526a18.98,18.98,0,0,1,.973,1.7,3.631,3.631,0,0,0,2.214,2.245,3.089,3.089,0,0,0,3.149-.878,3.2,3.2,0,0,0,.787-3.333,7.448,7.448,0,0,0-.246-.711,3.284,3.284,0,0,0,2.371-2.025,3.546,3.546,0,0,0-1.315-4.039m-14.6,56.021c.64-.122.973.036,1.095.687a11.381,11.381,0,0,0,.339,1.15c.4,1.319.787,1.61,2.14,1.6a4.183,4.183,0,0,0,4.036-3.13c.09-.288.2-.7.411-.785a1.235,1.235,0,0,1,.928.16c.095.052.059.523-.052.735-.911,1.734-.513,3.084,1.181,4.143.258.16.344.6.51.906a2.724,2.724,0,0,1-.966-.114,4.656,4.656,0,0,0-4.814-.194,1.776,1.776,0,0,0-.985,2.293c.448,2.185.449,2.19-1.577,3.173-2.57,1.248-5.148,2.483-7.717,3.734-.492.241-.813.288-1.025-.363-1.252-3.86-2.538-7.71-3.807-11.565a3.26,3.26,0,0,1-.069-.522c.83-.158,1.634-.315,2.44-.461,2.643-.482,5.291-.944,7.931-1.45m-8.406-4.919,4.718-.9c.067,1.221.129,2.4.2,3.7l-4.293.763-.625-3.564m7.137-13.705a9.908,9.908,0,0,0-.009,1.2c0,1.39.322,1.8,1.684,2.164a4.153,4.153,0,0,0,4.7-1.975c.281-.425.541-.852,1.152-.5.456.269.6.553.179,1.014-1.486,1.646-1.469,2.748.05,4.463.36.406.408.732-.177,1.109-.244-.225-.523-.453-.765-.713a4.5,4.5,0,0,0-4.783-1.221,1.64,1.64,0,0,0-1.178,1.612c0,.341-.064.684-.1,1.025-.153,1.589.134,1.319-1.481,1.636-3.115.608-6.24,1.174-9.354,1.779-.518.1-.808.065-.835-.566-.181-4.146-.384-8.291-.577-12.435a2.426,2.426,0,0,1,.067-.41c1.272.108,2.516.212,3.76.32,2.28.2,4.559.418,6.841.6.6.047.89.255.818.9m-8.268-4.33v-3.471h5.095c-.119,1.317-.229,2.548-.351,3.9-1.536-.139-3.163-.289-4.744-.432m15.915-12.834c.331-.315.62-.72,1.156-.322.468.35.474.749-.012,1.074-1.754,1.179-2.035,2.431-.938,4.287.256.432.343.787-.336,1.088-.219-.31-.418-.579-.606-.858a4.547,4.547,0,0,0-4.589-2.2,1.755,1.755,0,0,0-1.412,1.321c-.68,2.228-.694,2.228-2.987,2.178-2.746-.06-5.493-.15-8.24-.183-.723-.008-.961-.215-.839-.961q.963-5.842,1.854-11.7c.091-.6.341-.715.859-.553,3.246,1.016,6.491,2.037,9.744,3.034.477.146.56.4.458.83-.136.585-.239,1.178-.361,1.765a1.559,1.559,0,0,0,.7,1.7,4.205,4.205,0,0,0,5.549-.513m-12.781-8.581c.308-1.181.587-2.247.882-3.375,1.584.355,3.244.725,4.871,1.086-.369,1.233-.723,2.412-1.105,3.688-1.5-.454-3.1-.933-4.647-1.4m19.341-8.291c-2.018.854-2.5,2-1.743,3.976.093.246-.079.6-.129.9-.281-.164-.66-.262-.823-.5a23.239,23.239,0,0,0-1.2-2.033,4.234,4.234,0,0,0-1.591-1.116c-1.625-.68-2.4-.356-3.19,1.19-.832,1.62-.832,1.625-2.6,1.247-2.908-.625-5.811-1.269-8.723-1.879-.637-.133-.871-.312-.6-1.021q2.1-5.486,4.115-11.006c.264-.723.549-.775,1.183-.42q4.267,2.384,8.578,4.69c.536.286.723.572.427,1.137a13.629,13.629,0,0,0-.529,1.267c-.463,1.157-.386,1.744.641,2.443a18.616,18.616,0,0,0,2.648,1.262c.952-.42,1.825-.744,2.633-1.186.5-.277.842-.284,1.157.193.258.387.215.663-.262.864" transform="translate(-1501.357 -1338.912)" fill="#fff"/></svg>